<?xml version="1.0" encoding="UTF-8" standalone="no"?>
<!DOCTYPE svg PUBLIC "-//W3C//DTD SVG 1.1//EN" "http://www.w3.org/Graphics/SVG/1.1/DTD/svg11.dtd">
<svg width="100%" height="100%" viewBox="0 0 288 288" version="1.1" xmlns="http://www.w3.org/2000/svg" xmlns:xlink="http://www.w3.org/1999/xlink" xml:space="preserve" xmlns:serif="http://www.serif.com/" style="fill-rule:evenodd;clip-rule:evenodd;stroke-linecap:round;stroke-linejoin:round;stroke-miterlimit:1.5;">
    <g transform="matrix(0.96,0,0,0.96,0,0)">
        <g id="Modo-de-aislamiento" serif:id="Modo de aislamiento">
        </g>
        <g transform="matrix(0.305923,0,0,0.305923,6.2804,2.23622)">
            <g transform="matrix(1.52523,0,0,1.52523,-165.081,-206.999)">
                <path d="M325.591,489.768L361.12,734.711" style="fill:none;stroke:rgb(246,218,48);stroke-width:5.99px;"/>
                <path d="M393.171,484.644L393.778,734.711" style="fill:none;stroke:rgb(246,218,48);stroke-width:5.99px;"/>
                <path d="M434.897,484.644L436.032,734.711" style="fill:none;stroke:rgb(246,218,48);stroke-width:5.99px;"/>
                <path d="M507.66,484.644L467.022,734.711L331.725,734.711L331.38,752.718L493.791,755.49L488.129,734.711L467.022,734.711" style="fill:none;stroke:rgb(246,218,48);stroke-width:5.99px;"/>
                <g transform="matrix(1,0,0,1,14.1028,-20.6333)">
                    <circle cx="402.143" cy="230.332" r="60.396" style="fill:none;stroke:rgb(246,218,48);stroke-width:13.47px;"/>
                </g>
                <path d="M519.994,290.495C519.994,274.369 506.902,261.277 490.776,261.277L341.716,261.277C325.59,261.277 312.498,274.369 312.498,290.495L312.498,465.791C312.498,481.917 325.59,495.009 341.716,495.009L490.776,495.009C506.902,495.009 519.994,481.917 519.994,465.791L519.994,290.495Z" style="fill:rgb(201,190,38);stroke:rgb(246,218,48);stroke-width:7.49px;"/>
            </g>
            <g transform="matrix(1,0,0,1,7.36614,52.8496)">
                <g opacity="0.29">
                    <g>
                        <g transform="matrix(1,0,0,1,3.33099,-21.7815)">
                            <circle cx="362.976" cy="264.626" r="10.284" style="fill:rgb(246,218,48);"/>
                        </g>
                        <g transform="matrix(1,0,0,1,27.3927,-21.5679)">
                            <circle cx="362.976" cy="264.626" r="10.284" style="fill:rgb(246,218,48);"/>
                        </g>
                        <g transform="matrix(1,0,0,1,51.8831,-21.4495)">
                            <circle cx="362.976" cy="264.626" r="10.284" style="fill:rgb(246,218,48);"/>
                        </g>
                        <g transform="matrix(1,0,0,1,75.8934,-21.1999)">
                            <circle cx="362.976" cy="264.626" r="10.284" style="fill:rgb(246,218,48);"/>
                        </g>
                        <g transform="matrix(1,0,0,1,100.037,-21.6796)">
                            <circle cx="362.976" cy="264.626" r="10.284" style="fill:rgb(246,218,48);"/>
                        </g>
                        <g transform="matrix(1,0,0,1,123.705,-21.7639)">
                            <circle cx="362.976" cy="264.626" r="10.284" style="fill:rgb(246,218,48);"/>
                        </g>
                        <g transform="matrix(1,0,0,1,147.319,-21.3853)">
                            <circle cx="362.976" cy="264.626" r="10.284" style="fill:rgb(246,218,48);"/>
                        </g>
                        <g transform="matrix(1,0,0,1,171.608,-21.1759)">
                            <circle cx="362.976" cy="264.626" r="10.284" style="fill:rgb(246,218,48);"/>
                        </g>
                        <g transform="matrix(1,0,0,1,195.175,-20.1759)">
                            <circle cx="362.976" cy="264.626" r="10.284" style="fill:rgb(246,218,48);"/>
                        </g>
                        <g transform="matrix(1,0,0,1,3.9274,5.01447)">
                            <circle cx="362.976" cy="264.626" r="10.284" style="fill:rgb(246,218,48);"/>
                        </g>
                        <g transform="matrix(1,0,0,1,27.9892,5.22807)">
                            <circle cx="362.976" cy="264.626" r="10.284" style="fill:rgb(246,218,48);"/>
                        </g>
                        <g transform="matrix(1,0,0,1,52.4795,5.34651)">
                            <circle cx="362.976" cy="264.626" r="10.284" style="fill:rgb(246,218,48);"/>
                        </g>
                        <g transform="matrix(1,0,0,1,76.4898,5.59607)">
                            <circle cx="362.976" cy="264.626" r="10.284" style="fill:rgb(246,218,48);"/>
                        </g>
                        <g transform="matrix(1,0,0,1,100.633,5.11634)">
                            <circle cx="362.976" cy="264.626" r="10.284" style="fill:rgb(246,218,48);"/>
                        </g>
                        <g transform="matrix(1,0,0,1,124.301,5.0321)">
                            <circle cx="362.976" cy="264.626" r="10.284" style="fill:rgb(246,218,48);"/>
                        </g>
                        <g transform="matrix(1,0,0,1,147.915,5.41067)">
                            <circle cx="362.976" cy="264.626" r="10.284" style="fill:rgb(246,218,48);"/>
                        </g>
                        <g transform="matrix(1,0,0,1,172.204,5.62004)">
                            <circle cx="362.976" cy="264.626" r="10.284" style="fill:rgb(246,218,48);"/>
                        </g>
                        <g transform="matrix(1,0,0,1,195.772,6.62004)">
                            <circle cx="362.976" cy="264.626" r="10.284" style="fill:rgb(246,218,48);"/>
                        </g>
                        <g transform="matrix(1,0,0,1,3.41136,30.8757)">
                            <circle cx="362.976" cy="264.626" r="10.284" style="fill:rgb(246,218,48);"/>
                        </g>
                        <g transform="matrix(1,0,0,1,27.4731,31.0893)">
                            <circle cx="362.976" cy="264.626" r="10.284" style="fill:rgb(246,218,48);"/>
                        </g>
                        <g transform="matrix(1,0,0,1,51.9635,31.2077)">
                            <circle cx="362.976" cy="264.626" r="10.284" style="fill:rgb(246,218,48);"/>
                        </g>
                        <g transform="matrix(1,0,0,1,75.9738,31.4573)">
                            <circle cx="362.976" cy="264.626" r="10.284" style="fill:rgb(246,218,48);"/>
                        </g>
                        <g transform="matrix(1,0,0,1,100.117,30.9775)">
                            <circle cx="362.976" cy="264.626" r="10.284" style="fill:rgb(246,218,48);"/>
                        </g>
                        <g transform="matrix(1,0,0,1,123.785,30.8933)">
                            <circle cx="362.976" cy="264.626" r="10.284" style="fill:rgb(246,218,48);"/>
                        </g>
                        <g transform="matrix(1,0,0,1,147.399,31.2719)">
                            <circle cx="362.976" cy="264.626" r="10.284" style="fill:rgb(246,218,48);"/>
                        </g>
                        <g transform="matrix(1,0,0,1,171.688,31.4812)">
                            <circle cx="362.976" cy="264.626" r="10.284" style="fill:rgb(246,218,48);"/>
                        </g>
                        <g transform="matrix(1,0,0,1,195.256,32.4812)">
                            <circle cx="362.976" cy="264.626" r="10.284" style="fill:rgb(246,218,48);"/>
                        </g>
                        <g transform="matrix(1,0,0,1,3.53825,55.4954)">
                            <circle cx="362.976" cy="264.626" r="10.284" style="fill:rgb(246,218,48);"/>
                        </g>
                        <g transform="matrix(1,0,0,1,27.6,55.709)">
                            <circle cx="362.976" cy="264.626" r="10.284" style="fill:rgb(246,218,48);"/>
                        </g>
                        <g transform="matrix(1,0,0,1,52.0904,55.8274)">
                            <circle cx="362.976" cy="264.626" r="10.284" style="fill:rgb(246,218,48);"/>
                        </g>
                        <g transform="matrix(1,0,0,1,76.1007,56.077)">
                            <circle cx="362.976" cy="264.626" r="10.284" style="fill:rgb(246,218,48);"/>
                        </g>
                        <g transform="matrix(1,0,0,1,100.244,55.5973)">
                            <circle cx="362.976" cy="264.626" r="10.284" style="fill:rgb(246,218,48);"/>
                        </g>
                        <g transform="matrix(1,0,0,1,123.912,55.513)">
                            <circle cx="362.976" cy="264.626" r="10.284" style="fill:rgb(246,218,48);"/>
                        </g>
                        <g transform="matrix(1,0,0,1,147.526,55.8916)">
                            <circle cx="362.976" cy="264.626" r="10.284" style="fill:rgb(246,218,48);"/>
                        </g>
                        <g transform="matrix(1,0,0,1,171.815,56.101)">
                            <circle cx="362.976" cy="264.626" r="10.284" style="fill:rgb(246,218,48);"/>
                        </g>
                        <g transform="matrix(1,0,0,1,195.383,57.101)">
                            <circle cx="362.976" cy="264.626" r="10.284" style="fill:rgb(246,218,48);"/>
                        </g>
                        <g transform="matrix(1,0,0,1,3.51076,80.1722)">
                            <circle cx="362.976" cy="264.626" r="10.284" style="fill:rgb(246,218,48);"/>
                        </g>
                        <g transform="matrix(1,0,0,1,27.5725,80.3858)">
                            <circle cx="362.976" cy="264.626" r="10.284" style="fill:rgb(246,218,48);"/>
                        </g>
                        <g transform="matrix(1,0,0,1,52.0629,80.5043)">
                            <circle cx="362.976" cy="264.626" r="10.284" style="fill:rgb(246,218,48);"/>
                        </g>
                        <g transform="matrix(1,0,0,1,76.0732,80.7538)">
                            <circle cx="362.976" cy="264.626" r="10.284" style="fill:rgb(246,218,48);"/>
                        </g>
                        <g transform="matrix(1,0,0,1,100.217,80.2741)">
                            <circle cx="362.976" cy="264.626" r="10.284" style="fill:rgb(246,218,48);"/>
                        </g>
                        <g transform="matrix(1,0,0,1,123.885,80.1899)">
                            <circle cx="362.976" cy="264.626" r="10.284" style="fill:rgb(246,218,48);"/>
                        </g>
                        <g transform="matrix(1,0,0,1,147.498,80.5684)">
                            <circle cx="362.976" cy="264.626" r="10.284" style="fill:rgb(246,218,48);"/>
                        </g>
                        <g transform="matrix(1,0,0,1,171.788,80.7778)">
                            <circle cx="362.976" cy="264.626" r="10.284" style="fill:rgb(246,218,48);"/>
                        </g>
                        <g transform="matrix(1,0,0,1,195.355,81.7778)">
                            <circle cx="362.976" cy="264.626" r="10.284" style="fill:rgb(246,218,48);"/>
                        </g>
                        <g transform="matrix(1,0,0,1,3.12373,104.483)">
                            <circle cx="362.976" cy="264.626" r="10.284" style="fill:rgb(246,218,48);"/>
                        </g>
                    </g>
                    <g transform="matrix(1,0,0,1,27.1855,104.697)">
                        <circle cx="362.976" cy="264.626" r="10.284" style="fill:rgb(246,218,48);"/>
                    </g>
                    <g transform="matrix(1,0,0,1,51.6759,104.815)">
                        <circle cx="362.976" cy="264.626" r="10.284" style="fill:rgb(246,218,48);"/>
                    </g>
                    <g transform="matrix(1,0,0,1,75.6861,105.065)">
                        <circle cx="362.976" cy="264.626" r="10.284" style="fill:rgb(246,218,48);"/>
                    </g>
                    <g transform="matrix(1,0,0,1,99.8297,104.585)">
                        <circle cx="362.976" cy="264.626" r="10.284" style="fill:rgb(246,218,48);"/>
                    </g>
                    <g transform="matrix(1,0,0,1,123.498,104.501)">
                        <circle cx="362.976" cy="264.626" r="10.284" style="fill:rgb(246,218,48);"/>
                    </g>
                    <g transform="matrix(1,0,0,1,147.111,104.879)">
                        <circle cx="362.976" cy="264.626" r="10.284" style="fill:rgb(246,218,48);"/>
                    </g>
                    <g transform="matrix(1,0,0,1,171.401,105.089)">
                        <circle cx="362.976" cy="264.626" r="10.284" style="fill:rgb(246,218,48);"/>
                    </g>
                    <g transform="matrix(1,0,0,1,194.968,106.089)">
                        <circle cx="362.976" cy="264.626" r="10.284" style="fill:rgb(246,218,48);"/>
                    </g>
                </g>
            </g>
        </g>
    </g>
</svg>
