<?xml version="1.0" encoding="UTF-8" standalone="no"?>
<!DOCTYPE svg PUBLIC "-//W3C//DTD SVG 1.1//EN" "http://www.w3.org/Graphics/SVG/1.1/DTD/svg11.dtd">
<svg width="100%" height="100%" viewBox="0 0 288 288" version="1.1" xmlns="http://www.w3.org/2000/svg" xmlns:xlink="http://www.w3.org/1999/xlink" xml:space="preserve" xmlns:serif="http://www.serif.com/" style="fill-rule:evenodd;clip-rule:evenodd;stroke-linejoin:round;stroke-miterlimit:2;">
    <g transform="matrix(0.96,0,0,0.96,0,0)">
        <g id="Modo-de-aislamiento" serif:id="Modo de aislamiento">
        </g>
        <g id="Layer-2" serif:id="Layer 2">
        </g>
        <g transform="matrix(1,0,0,1,-2.66979,-13.137)">
            <g transform="matrix(0.43848,3.92322e-17,-3.92322e-17,0.43848,135.549,234.111)">
                <g transform="matrix(1,0,0,1,-144,-144)">
                    <g transform="matrix(3.16462,0,0,3.16462,41.0011,103.496)">
                        <g id="Modo-de-aislamiento1" serif:id="Modo de aislamiento">
                            <g transform="matrix(0,69.2138,69.2138,0,32.5471,-14.8629)">
                                <ellipse cx="0.472" cy="0" rx="0.113" ry="0.47" style="fill:rgb(20,72,90);"/>
                            </g>
                            <g transform="matrix(-63.9226,0,0,63.9226,64.351,12.1004)">
                                <path d="M0.49,-0.189C0.53,-0.189 0.578,-0.183 0.632,-0.165C0.632,-0.165 0.9,-0.035 1,0.069C1,0.069 0.967,0.189 0.473,0.189C-0.02,0.189 0,0.063 0,0.063C0,0.063 0.086,-0.026 0.363,-0.165C0.363,-0.165 0.409,-0.189 0.488,-0.189L0.49,-0.189Z" style="fill:rgb(34,85,102);fill-rule:nonzero;"/>
                            </g>
                            <g transform="matrix(0,15.4987,15.4987,0,32.5482,-5.2446)">
                                <ellipse cx="0.5" cy="0" rx="0.12" ry="0.5" style="fill:url(#_Linear1);"/>
                            </g>
                        </g>
                    </g>
                </g>
            </g>
            <g transform="matrix(2.62866,-1.35219,1.35219,2.62866,49.9667,70.2256)">
                <g transform="matrix(1,5.55112e-17,-5.55112e-17,1,3.9976,2.016)">
                    <path d="M0,58.365L27.632,3.224C28.094,2.302 27.573,1.106 26.47,0.553C25.365,0 24.096,0.299 23.634,1.22L-3.998,56.361L0,58.365Z" style="fill:rgb(34,85,102);fill-rule:nonzero;"/>
                </g>
                <g transform="matrix(0.448065,-0.894001,-0.894001,-0.448065,33.2982,1.14999)">
                    <path d="M-3.782,-2.335C-5.732,-2.335 -7.312,-0.442 -7.313,1.893C-7.313,4.231 -5.733,6.125 -3.782,6.124C-1.833,6.124 -0.25,4.23 -0.251,1.895C-0.25,-0.441 -1.832,-2.334 -3.782,-2.335" style="fill:rgb(46,107,124);fill-rule:nonzero;"/>
                </g>
            </g>
        </g>
        <g id="Modo-de-aislamiento2" serif:id="Modo de aislamiento">
        </g>
    </g>
    <defs>
        <linearGradient id="_Linear1" x1="0" y1="0" x2="1" y2="0" gradientUnits="userSpaceOnUse" gradientTransform="matrix(6.12323e-17,-1,1,6.12323e-17,0.499945,0.499945)"><stop offset="0" style="stop-color:rgb(92,92,92);stop-opacity:1"/><stop offset="1" style="stop-color:rgb(38,38,38);stop-opacity:1"/></linearGradient>
    </defs>
</svg>
