<?xml version="1.0"?>
<svg xmlns="http://www.w3.org/2000/svg" xmlns:xlink="http://www.w3.org/1999/xlink" xmlns:svgjs="http://svgjs.com/svgjs" version="1.1" width="512" height="512" x="0" y="0" viewBox="0 0 509.241 509.241" style="enable-background:new 0 0 512 512" xml:space="preserve" class=""><g><path xmlns="http://www.w3.org/2000/svg" d="m388.031 345.07-56.167-10.212c-9.991-1.817-17.243-10.506-17.243-20.661v-18.838c27.183-18.996 45-50.513 45-86.117h15c24.813 0 45-20.187 45-45 .582-30.454-31.602-53.053-60-42.42v-121.737l-43.877 17.551-31.124-17.636-30 17-30-17-31.123 17.636-43.877-17.551v121.736c-28.401-10.625-60.58 11.959-59.999 42.42-.001 24.813 20.186 45 44.999 45h15c0 35.604 17.817 67.121 45 86.117v18.838c0 10.155-7.252 18.844-17.244 20.661l-56.166 10.212c-53.071 9.649-91.59 55.802-91.59 109.744v54.427h450v-54.427c0-53.941-38.519-100.094-91.589-109.743zm-253.411 28.053 32.954-5.992c4.547 17.28 14.117 32.542 27.046 44.129v67.98h-60zm90 55.97c18.824 6.675 40.108 7.054 60 0v50.148h-60zm90-17.833c12.93-11.587 22.499-26.85 27.047-44.129l32.953 5.992v106.118h-60zm60-262.019c19.875.756 19.864 29.25 0 30h-15v-15c0-8.271 6.729-15 15-15zm-178.877-98.396 28.877-16.364 30 17 30-17 28.877 16.364 16.123-6.449v52.916c-8.832-5.123-19.075-8.072-30-8.072h-90c-10.925 0-21.168 2.949-30 8.072v-52.916zm-61.123 128.396c-19.872-.754-19.867-29.249 0-30 8.271 0 15 6.729 15 15v15zm45 30c0-18.229 0-42.154 0-60 0-16.542 13.458-30 30-30h90c16.542 0 30 13.458 30 30v60c-3.762 99.345-146.239 99.349-150 0zm105 100.625c.143.528-3.034 34.153 27.971 49.832-16.299 59.036-99.665 58.996-115.942 0 31.168-15.76 27.778-49.116 27.971-49.832 19.061 5.694 40.006 5.973 60 0zm-225 144.948c0-31.506 17.985-59.361 45-72.893v97.32h-45zm390 24.427h-45v-97.32c27.015 13.531 45 41.387 45 72.893z" fill="#ffffff" data-original="#000000" style="" class=""/></g></svg>
