<?xml version="1.0" encoding="UTF-8"?>
<svg width="27px" height="27px" viewBox="0 0 27 27" version="1.1" xmlns="http://www.w3.org/2000/svg" xmlns:xlink="http://www.w3.org/1999/xlink">
    <title>lupa</title>
    <g id="Diseños" stroke="none" stroke-width="1" fill="none" fill-rule="evenodd">
        <g id="Plantilla-Equipos" transform="translate(-248.000000, -107.000000)" fill="#FFFFFF" fill-rule="nonzero">
            <g id="Group-5" transform="translate(235.000000, 101.000000)">
                <g id="lupa" transform="translate(13.000000, 6.000000)">
                    <path d="M26.670157,25.0795073 L18.0409651,16.4584959 C19.4347369,14.7241686 20.2692053,12.5220349 20.2692053,10.1249951 C20.2692053,4.5334138 15.7314897,0 10.1346026,0 C4.53771555,0 0,4.5334138 0,10.1249951 C0,15.7165763 4.53771555,20.2499901 10.1346026,20.2499901 C12.5208265,20.2499901 14.7141234,19.4254886 16.4456625,18.046749 L25.0775992,26.6705026 C25.5173459,27.1098325 26.2303574,27.1098325 26.6701042,26.6705026 C27.1099565,26.23112 27.1099565,25.5188371 26.670157,25.0795073 Z M2.2522043,10.1249951 C2.2522043,5.77604601 5.78163245,2.25001648 10.1346554,2.25001648 C14.4876784,2.25001648 18.0171593,5.77604601 18.0171593,10.1249951 C18.0171593,12.3057713 17.129537,14.2795653 15.6957019,15.7056603 C15.6955963,15.7057658 15.695438,15.7058712 15.6953324,15.7060294 C15.6952796,15.7060822 15.6951741,15.7061876 15.6951213,15.7062931 C14.2696789,17.1237397 12.3045689,18.0000264 10.1347082,18.0000264 C5.78163245,18.0000264 2.2522043,14.4739441 2.2522043,10.1249951 Z" id="Shape"></path>
                </g>
            </g>
        </g>
    </g>
</svg>