<?xml version="1.0" encoding="UTF-8"?>
<svg width="36px" height="36px" viewBox="0 0 36 36" version="1.1" xmlns="http://www.w3.org/2000/svg" xmlns:xlink="http://www.w3.org/1999/xlink">
    <title>menu</title>
    <g id="Diseños" stroke="none" stroke-width="1" fill="none" fill-rule="evenodd">
        <g id="Home" transform="translate(-838.000000, -638.000000)" fill="#FFFFFF" fill-rule="nonzero">
            <g id="menu" transform="translate(838.000000, 638.000000)">
                <path d="M12.7350169,0 L4.26498305,0 C1.91329237,0 0,1.91329237 0,4.26498305 L0,12.7350169 C0,15.0867076 1.91329237,17 4.26498305,17 L12.7350169,17 C15.0867076,17 17,15.0867076 17,12.7350169 L17,4.26498305 C17,1.91329237 15.0867076,0 12.7350169,0 Z M14.1186441,12.7350169 C14.1186441,13.497928 13.497928,14.1186441 12.7350169,14.1186441 L4.26498305,14.1186441 C3.50207203,14.1186441 2.88135593,13.497928 2.88135593,12.7350169 L2.88135593,4.26498305 C2.88135593,3.50207203 3.50207203,2.88135593 4.26498305,2.88135593 L12.7350169,2.88135593 C13.497928,2.88135593 14.1186441,3.50207203 14.1186441,4.26498305 L14.1186441,12.7350169 Z" id="Shape"></path>
                <path d="M31.6779661,0 L23.3220339,0 C20.9388644,0 19,1.93886441 19,4.3220339 L19,12.6779661 C19,15.0611356 20.9388644,17 23.3220339,17 L31.6779661,17 C34.0611356,17 36,15.0611356 36,12.6779661 L36,4.3220339 C36,1.93886441 34.0611356,0 31.6779661,0 Z M33.1186441,12.6779661 C33.1186441,13.4723559 32.4723559,14.1186441 31.6779661,14.1186441 L23.3220339,14.1186441 C22.5276441,14.1186441 21.8813559,13.4723559 21.8813559,12.6779661 L21.8813559,4.3220339 C21.8813559,3.52764407 22.5276441,2.88135593 23.3220339,2.88135593 L31.6779661,2.88135593 C32.4723559,2.88135593 33.1186441,3.52764407 33.1186441,4.3220339 L33.1186441,12.6779661 Z" id="Shape"></path>
                <path d="M12.7350169,19 L4.26498305,19 C1.91329237,19 0,20.9132924 0,23.2649831 L0,31.7350169 C0,34.0867076 1.91329237,36 4.26498305,36 L12.7350169,36 C15.0867076,36 17,34.0867076 17,31.7350169 L17,23.2649831 C17,20.9132924 15.0867076,19 12.7350169,19 Z M14.1186441,31.7350169 C14.1186441,32.497928 13.497928,33.1186441 12.7350169,33.1186441 L4.26498305,33.1186441 C3.50207203,33.1186441 2.88135593,32.497928 2.88135593,31.7350169 L2.88135593,23.2649831 C2.88135593,22.502072 3.50207203,21.8813559 4.26498305,21.8813559 L12.7350169,21.8813559 C13.497928,21.8813559 14.1186441,22.502072 14.1186441,23.2649831 L14.1186441,31.7350169 Z" id="Shape"></path>
                <path d="M31.6779661,19 L23.3220339,19 C20.9388644,19 19,20.9388644 19,23.3220339 L19,31.6779661 C19,34.0611356 20.9388644,36 23.3220339,36 L31.6779661,36 C34.0611356,36 36,34.0611356 36,31.6779661 L36,23.3220339 C36,20.9388644 34.0611356,19 31.6779661,19 Z M33.1186441,31.6779661 C33.1186441,32.4723559 32.4723559,33.1186441 31.6779661,33.1186441 L23.3220339,33.1186441 C22.5276441,33.1186441 21.8813559,32.4723559 21.8813559,31.6779661 L21.8813559,23.3220339 C21.8813559,22.5276441 22.5276441,21.8813559 23.3220339,21.8813559 L31.6779661,21.8813559 C32.4723559,21.8813559 33.1186441,22.5276441 33.1186441,23.3220339 L33.1186441,31.6779661 Z" id="Shape"></path>
            </g>
        </g>
    </g>
</svg>