<?xml version="1.0" encoding="UTF-8"?>
<svg width="52px" height="46px" viewBox="0 0 52 46" version="1.1" xmlns="http://www.w3.org/2000/svg" xmlns:xlink="http://www.w3.org/1999/xlink">
    <title>descarga-directa</title>
    <g id="Diseños" stroke="none" stroke-width="1" fill="none" fill-rule="evenodd">
        <g id="Home" transform="translate(-261.000000, -737.000000)" fill="#FFFFFF" fill-rule="nonzero">
            <g id="descarga-directa" transform="translate(287.000000, 760.000000) scale(1, -1) translate(-287.000000, -760.000000) translate(261.000000, 737.000000)">
                <path d="M26.5,32 C26.2120214,32 25.9240427,31.888 25.7035591,31.6662857 L13.3294772,19.0948571 C13.0077511,18.7657143 12.9110082,18.2765714 13.0864952,17.8491429 C13.2597324,17.4217143 13.6714518,17.1428571 14.1259181,17.1428571 L20.8754173,17.1428571 L20.8754173,2.28571429 C20.8754173,1.02628571 21.8855924,0 23.1252504,0 L29.8747496,0 C31.1144076,0 32.1245827,1.02628571 32.1245827,2.28571429 L32.1245827,17.1428571 L38.8740819,17.1428571 C39.3285482,17.1428571 39.7402676,17.4217143 39.9135048,17.8491429 C40.0889918,18.2765714 39.9922489,18.768 39.6705228,19.0948571 L27.2964409,31.6662857 C27.0759573,31.888 26.7879786,32 26.5,32 Z M16.8414666,19.4285714 L26.5,29.2411429 L36.1585334,19.4285714 L30.9996661,19.4285714 C30.3787122,19.4285714 29.8747496,18.9165714 29.8747496,18.2857143 L29.8747496,2.28571429 L23.1252504,2.28571429 L23.1252504,18.2857143 C23.1252504,18.9165714 22.6212878,19.4285714 22.0003339,19.4285714 L16.8414666,19.4285714 Z" id="Shape"></path>
                <path d="M48.75,46 L3.25,46 C1.45816667,46 0,44.48575 0,42.625 L0,40.375 C0,38.51425 1.45816667,37 3.25,37 L48.75,37 C50.5418333,37 52,38.51425 52,40.375 L52,42.625 C52,44.48575 50.5418333,46 48.75,46 Z M3.25,39.25 C2.652,39.25 2.16666667,39.754 2.16666667,40.375 L2.16666667,42.625 C2.16666667,43.246 2.652,43.75 3.25,43.75 L48.75,43.75 C49.348,43.75 49.8333333,43.246 49.8333333,42.625 L49.8333333,40.375 C49.8333333,39.754 49.348,39.25 48.75,39.25 L3.25,39.25 Z" id="Shape"></path>
            </g>
        </g>
    </g>
</svg>