<?xml version="1.0" encoding="UTF-8"?>
<svg width="27px" height="32px" viewBox="0 0 27 32" version="1.1" xmlns="http://www.w3.org/2000/svg" xmlns:xlink="http://www.w3.org/1999/xlink">
    <title>graficos-en-movimiento</title>
    <g id="Diseños" stroke="none" stroke-width="1" fill="none" fill-rule="evenodd">
        <g id="Diseñar-Jugada" transform="translate(-23.000000, -779.000000)" fill="#FFFFFF" fill-rule="nonzero">
            <g id="graficos-en-movimiento" transform="translate(23.000000, 779.000000)">
                <path d="M26.0651797,22.4899627 L14.9850711,22.4899627 L14.9850711,21.8824932 C15.0984551,21.8369315 15.2067425,21.7754109 15.3051513,21.6956779 L15.9876575,21.1426632 C16.1818953,20.9853291 16.2932658,20.7544748 16.2932658,20.5093064 L16.2932658,18.8260196 C16.2932658,18.3705241 15.9105161,18 15.4399914,18 L13.5865216,18 C13.1159969,18 12.7332472,18.3705241 12.7332472,18.8260196 L12.7332472,20.5093064 C12.7332472,20.7544748 12.8446807,20.98539 13.0388555,21.1426632 L13.7214247,21.6957388 C13.8197705,21.7754109 13.927932,21.8368705 14.0411902,21.8823714 L14.0411902,22.4899627 L8.93475734,22.4899627 C8.41936979,22.4899627 8,22.8958763 8,23.3948016 L8,24.6767432 C8,25.1756685 8.41936979,25.5815821 8.93475734,25.5815821 L14.0411902,25.5815821 L14.0411902,26.8276468 L8.93475734,26.8276468 C8.41936979,26.8276468 8,27.2335604 8,27.7324858 L8,29.0144273 C8,29.5133527 8.41936979,29.9192663 8.93475734,29.9192663 L14.0411902,29.9192663 L14.0411902,31.5431644 C14.0411902,31.7955204 14.2524167,32 14.5130992,32 C14.7737817,32 14.9850082,31.7955204 14.9850082,31.5431644 L14.9850082,29.9193881 L26.0651797,29.9193881 C26.5805673,29.9193881 27,29.5134745 27,29.0145491 L27,27.7325467 C27,27.2336214 26.5805673,26.8277077 26.0651797,26.8277077 L14.9850711,26.8277077 L14.9850711,25.581643 L26.0652427,25.581643 C26.5806302,25.581643 27,25.1757294 27,24.6768041 L27,23.3948626 C27,22.8958763 26.5806302,22.4899627 26.0651797,22.4899627 L26.0651797,22.4899627 Z M13.6770652,20.468313 L13.6770652,18.913732 L15.3493849,18.913732 L15.3493849,20.468313 L14.699346,20.995014 C14.6459259,21.0382611 14.5805507,21.0600064 14.5151127,21.0604328 C14.5144205,21.0604328 14.5137913,21.0603719 14.5130992,21.0603719 C14.51247,21.0603719 14.5119037,21.0604328 14.5112745,21.0604328 C14.4458364,21.0600064 14.3805242,21.038322 14.3271671,20.9950749 L13.6770652,20.468313 Z M8.94381799,29.005717 L8.94381799,27.7413789 L14.0412531,27.7413789 L14.0412531,29.005717 L8.94381799,29.005717 Z M26.056182,29.005717 L19.8400079,29.005717 L19.8400079,27.7413789 L26.056182,27.7413789 L26.056182,29.005717 Z M18.89619,27.7413789 L18.89619,29.005717 L14.9850711,29.005717 L14.9850711,27.7413789 L18.89619,27.7413789 Z M8.94381799,24.6679719 L8.94381799,23.4036338 L14.0412531,23.4036338 L14.0412531,24.6679719 L8.94381799,24.6679719 Z M14.9850711,23.4036338 L21.7415495,23.4036338 L21.7415495,24.6679719 L14.9850711,24.6679719 L14.9850711,23.4036338 Z M26.056182,24.6679719 L22.6853675,24.6679719 L22.6853675,23.4036338 L26.056182,23.4036338 L26.056182,24.6679719 Z" id="Shape"></path>
                <path d="M6.01906216,22 L0.9810055,22 C0.440092411,22 0,22.3843608 0,22.8568473 L0,24.1431527 C0,24.6156392 0.440092411,25 0.9810055,25 L6.01906216,25 C6.55997525,25 7,24.6156392 7,24.1431527 L7,22.8568473 C7,22.3843608 6.56004292,22 6.01906216,22 Z M5.98502673,24.1134228 L1.01497327,24.1134228 L1.01497327,22.8865772 L5.98502673,22.8865772 L5.98502673,24.1134228 Z" id="Shape"></path>
                <path d="M6.01906216,27 L0.9810055,27 C0.440092411,27 0,27.3843608 0,27.8568473 L0,29.1431527 C0,29.6156392 0.440092411,30 0.9810055,30 L6.01906216,30 C6.55997525,30 7,29.6156392 7,29.1431527 L7,27.8568473 C7,27.3843608 6.56004292,27 6.01906216,27 Z M5.98502673,29.1134228 L1.01497327,29.1134228 L1.01497327,27.8865772 L5.98502673,27.8865772 L5.98502673,29.1134228 Z" id="Shape"></path>
                <path d="M24.7827669,0 L2.21723311,0 C0.994626304,0 0,0.97976297 0,2.18403838 L0,13.8159616 C0,15.020237 0.994626304,16 2.21723311,16 L5.36944104,16 C5.62687446,16 5.83546824,15.7945234 5.83546824,15.5409369 C5.83546824,15.2873505 5.62687446,15.0818739 5.36944104,15.0818739 L2.21723311,15.0818739 C1.50862323,15.0818739 0.932054386,14.5140435 0.932054386,13.8159616 L0.932054386,2.18403838 C0.932054386,1.4859565 1.50862323,0.918126105 2.21723311,0.918126105 L24.7827669,0.918126105 C25.4913768,0.918126105 26.0679456,1.4859565 26.0679456,2.18403838 L26.0679456,13.8159616 C26.0679456,14.5139823 25.4914389,15.0818739 24.7827669,15.0818739 L7.23354982,15.0818739 C6.97611639,15.0818739 6.76752262,15.2873505 6.76752262,15.5409369 C6.76752262,15.7945234 6.97611639,16 7.23354982,16 L24.7827669,16 C26.0053737,16 27,15.020237 27,13.8159616 L27,2.18403838 C27,0.97976297 26.0053737,0 24.7827669,0 Z" id="Path"></path>
                <path d="M23,8.5 C23,7.12151749 21.8784692,6 20.4999704,6 C19.1214715,6 18,7.12151749 18,8.5 C18,9.87848251 19.1214715,11 20.4999704,11 C21.8784692,11 23,9.87842324 23,8.5 Z M18.8892222,8.5 C18.8892222,7.61179609 19.6118152,6.88915234 20.5000296,6.88915234 C21.3882441,6.88915234 22.1108964,7.61173681 22.1108964,8.5 C22.1108964,9.38826319 21.3883034,10.1108477 20.5000296,10.1108477 C19.6118152,10.1107884 18.8892222,9.38820391 18.8892222,8.5 Z" id="Shape"></path>
                <path d="M16.5332788,7.03030739 C14.7791387,7.03030739 13.0956818,7.69613568 11.9032125,8.83710903 C11.2201482,7.78477881 10.2689727,6.88924869 9.11937377,6.2250392 C7.73246319,5.42362264 6.1236096,5 4.46665901,5 C4.20887657,5 4,5.1873898 4,5.41865461 C4,5.64991941 4.20887657,5.83730922 4.46665901,5.83730922 C5.94397699,5.83730922 7.37811345,6.21482403 8.61401317,6.92899297 C9.83242873,7.6331142 10.7925019,8.6323032 11.3958609,9.76401034 C11.5482406,10.0476349 11.9827312,10.0821878 12.1906123,9.83183238 C13.2091111,8.60193679 14.8325867,7.8676166 16.533341,7.8676166 C16.7911234,7.8676166 17,7.6802268 17,7.44896199 C17,7.21769719 16.790999,7.03030739 16.5332788,7.03030739 Z" id="Path"></path>
                <path d="M16.5061222,8 C15.5748663,8 14.6753503,8.27139814 13.9043742,8.78518109 C12.9795058,9.40298265 12.3093466,10.3258794 12.0174978,11.3836296 C11.9457867,11.6435785 12.1009961,11.9117891 12.3641341,11.9826961 C12.4075954,11.9944055 12.45132,12 12.4943862,12 C12.7116265,12 12.9106263,11.8573403 12.9705502,11.6403259 C13.2003021,10.8075265 13.7284879,10.0806323 14.4572539,9.59384605 C15.0639992,9.18948105 15.7724833,8.97578429 16.5061222,8.97578429 C16.7789403,8.97578429 17,8.75740376 17,8.48789214 C17,8.21838052 16.7788745,8 16.5061222,8 Z" id="Path"></path>
                <path d="M4.46403756,6.91962926 C5.81537135,6.91962926 7.12642132,7.39909462 8.15573199,8.26979634 C9.17390427,9.13105591 9.85662548,10.3197253 10.0782175,11.6168569 C10.1165212,11.8412614 10.312928,12 10.5352626,12 C10.5609428,12 10.5870561,11.9979154 10.6132932,11.9935009 C10.8660108,11.9511338 11.0361806,11.713731 10.9934216,11.4633912 C10.7356298,9.95405635 9.94189602,8.57145485 8.75844246,7.57040231 C7.56125155,6.55770036 6.03615893,6 4.46409944,6 C4.20773091,6 4,6.20582675 4,6.45984529 C4,6.71386382 4.20766903,6.91962926 4.46403756,6.91962926 Z" id="Path"></path>
            </g>
        </g>
    </g>
</svg>