<?xml version="1.0" encoding="UTF-8"?>
<svg width="61px" height="60px" viewBox="0 0 61 60" version="1.1" xmlns="http://www.w3.org/2000/svg" xmlns:xlink="http://www.w3.org/1999/xlink">
    <title>linea curva</title>
    <g id="Diseños" stroke="none" stroke-width="1" fill="none" fill-rule="evenodd">
        <g id="Diseñar-Jugada" transform="translate(-448.000000, -758.000000)" fill="#FFFFFF" fill-rule="nonzero">
            <g id="linea-curva" transform="translate(448.000000, 758.000000)">
                <g id="Group" transform="translate(30.636300, 29.727383) rotate(-140.470811) translate(-30.636300, -29.727383) translate(7.636300, 10.727383)">
                    <path d="M4.46762789,36.9142222 C11.2762928,30.6300568 21.7278615,29.2763656 28.9627381,23.4470047 C35.2585193,18.37446 38.3063351,8.78782406 44.6762789,3.85377582 C43.5066539,3.70366352 42.3379225,3.5526577 41.1682975,3.40165188 C41.8411223,4.98408568 47.0065936,5.09130875 45.0256474,1.14728684 C44.3161881,-0.265377097 42.600619,-0.144751144 41.517666,0.6951629 C35.1620186,5.61759531 32.9523298,15.6098919 26.670845,20.6699272 C19.4207784,26.5109039 8.13108276,27.4589345 1.30901497,33.7556093 C-0.812214751,35.7133238 2.3544399,38.8647886 4.46762789,36.9142222" id="Path"></path>
                </g>
            </g>
        </g>
    </g>
</svg>