<?xml version="1.0" encoding="UTF-8"?>
<?xml-stylesheet href="./style.css" type="text/css"?>
<svg width="69px" height="18px" viewBox="0 0 69 18" version="1.1" xmlns="http://www.w3.org/2000/svg" xmlns:xlink="http://www.w3.org/1999/xlink">
    <script type="text/javascript" xlink:href="https://cdn.jsdelivr.net/npm/interactjs/dist/interact.min.js"></script>
    <script type="text/javascript" xlink:href="./index.js"/>
    <title>flecha zigzag</title>
    <g id="Diseños" stroke="none" stroke-width="1" fill="none" fill-rule="evenodd">
        <g id="Diseñar-Jugada" transform="translate(-243.000000, -721.000000)" fill="#FFFFFF" fill-rule="nonzero">
            <g id="flecha-zigzag" transform="translate(243.000000, 721.000000)">
                <g id="Group" transform="translate(34.030333, 9.462000) rotate(-180.000000) translate(-34.030333, -9.462000) translate(0.030333, 0.962000)">
                    <path d="M1.66666667,13.771 C6.41666667,9.387 11.559,5.394 16.6666667,1.43766667 C16.2303333,1.38166667 15.7943333,1.32533333 15.358,1.269 C17.8023333,5.82466667 20.2466667,10.3803333 22.6913333,14.9356667 C22.9343333,15.389 23.6516667,15.5023333 24,15.1043333 C27.889,10.66 31.778,6.21533333 35.6666667,1.771 C35.2303333,1.715 34.7943333,1.65866667 34.358,1.60233333 C37.8023333,6.38033333 41.2466667,11.158 44.6913333,15.9356667 C44.991,16.3513333 45.6076667,16.5293428 46,16.1043333 L58,3.10433333 L56.8216667,3.10433333 C60.0436667,6.882 63.266,10.66 66.4883333,14.4376667 C67.187,15.2566667 68.36,14.072 67.6666667,13.2593333 C64.4446667,9.48133333 61.2223333,5.70366667 58,1.926 C57.7133333,1.58966667 57.112,1.61133333 56.8216667,1.926 L44.8216667,14.926 C45.2576667,14.982 45.694,15.0383333 46.1303333,15.0946667 C42.686,10.3166667 39.2416667,5.539 35.797,0.761333333 C35.504,0.354666667 34.87,0.156 34.4883333,0.592666667 C30.5993333,5.037 26.7103333,9.48133333 22.8216667,13.926 C23.2576667,13.982 23.694,14.0383333 24.1303333,14.0946667 C21.686,9.539 19.2416667,4.98333333 16.797,0.428 C16.5183333,-0.0916666667 15.8923333,-0.054 15.4883333,0.259333333 C10.3806667,4.21533333 5.238,8.20866667 0.488333333,12.5926667 C-0.303,13.323 0.878333333,14.4986667 1.66666667,13.771" id="Path"></path>
                </g>
                <g id="Group" transform="translate(63.915667, 6.664667) rotate(-180.000000) translate(-63.915667, -6.664667) translate(59.415667, 2.164667)">
                    <path d="M1,0.738333333 C0.964333333,2.94066667 0.563,5.08533333 0.133333333,7.23866667 C0.042,7.69666667 0.417333333,8.13966667 0.902333333,8.00766667 C3.261,7.36566667 5.61033333,6.747 8.06933333,6.69666667 C8.87433333,6.68033333 8.87566667,5.43033333 8.06933333,5.44666667 C5.499,5.49933333 3.03733333,6.13066667 0.569666667,6.80233333 L1.33866667,7.57133333 C1.79,5.30866667 2.21266667,3.05166667 2.25,0.738333333 C2.263,-0.068 1.013,-0.067 1,0.738333333" id="Path"></path>
                </g>
            </g>
        </g>
    </g>
</svg>