<?xml version="1.0" encoding="UTF-8"?>
<svg width="45px" height="40px" viewBox="0 0 45 40" version="1.1" xmlns="http://www.w3.org/2000/svg" xmlns:xlink="http://www.w3.org/1999/xlink">
    <title>fuente(1)</title>
    <g id="Diseños" stroke="none" stroke-width="1" fill="none" fill-rule="evenodd">
        <g id="Diseñar-Jugada" transform="translate(-897.000000, -751.000000)" fill="#FFFFFF" fill-rule="nonzero">
            <g id="fuente(1)" transform="translate(897.000000, 751.000000)">
                <polygon id="Path" points="16.7999617 5.71431364 22.3999808 5.71431364 22.3999808 8.57142159 28 8.57142159 28 0 0 0 0 8.57142159 5.60001915 8.57142159 5.60001915 5.71431364 11.2000383 5.71431364 11.2000383 34.2856864 5.60001915 34.2856864 5.60001915 40 22.3972034 40 22.3972034 34.2856864 16.7999617 34.2856864"></polygon>
                <polygon id="Path" points="22 14.0000988 22 22.6667325 27.7500246 22.6667325 27.7500246 19.7778876 30.6249877 19.7778876 30.6249877 34.2222112 27.7500246 34.2222112 27.7500246 40 39.2499754 40 39.2499754 34.2222112 36.3750123 34.2222112 36.3750123 19.7777888 39.2499754 19.7777888 39.2499754 22.6666337 45 22.6666337 45 14 22 14"></polygon>
            </g>
        </g>
    </g>
</svg>