<?xml version="1.0" encoding="UTF-8"?>
<svg width="48px" height="48px" viewBox="0 0 48 48" version="1.1" xmlns="http://www.w3.org/2000/svg" xmlns:xlink="http://www.w3.org/1999/xlink">
    <title>soccer-ball</title>
    <g id="Diseños" stroke="none" stroke-width="1" fill="none" fill-rule="evenodd">
        <g id="Diseñar-Jugada" transform="translate(-817.000000, -747.000000)" fill="#FFFFFF" fill-rule="nonzero">
            <g id="soccer-ball" transform="translate(817.000000, 747.000000)">
                <path d="M24,0 C21.213,0 18.546,0.501 16.056,1.38 C16.041,1.383 16.029,1.389 16.017,1.395 C11.511,2.991 7.629,5.889 4.812,9.645 C4.809,9.651 4.803,9.657 4.797,9.666 C1.8,13.671 0,18.624 0,24 C0,37.233 10.767,48 24,48 C37.233,48 48,37.233 48,24 C48,10.767 37.233,0 24,0 Z M42.663,14.415 C43.788,16.596 44.544,18.996 44.844,21.537 L41.832,18.249 L42.663,14.415 Z M40.362,10.869 L38.889,17.658 L34.182,19.962 L25.524,13.653 L25.524,7.8 L31.695,4.482 C35.115,5.832 38.094,8.046 40.362,10.869 Z M32.241,22.26 L28.941,31.5 L19.062,31.5 L15.81,22.263 L24.027,16.272 L32.241,22.26 Z M24,3 C25.203,3 26.373,3.123 27.522,3.318 L24.03,5.196 L20.538,3.309 C21.666,3.123 22.818,3 24,3 Z M16.356,4.461 L22.527,7.791 L22.527,13.653 L13.872,19.962 L9.141,17.652 L7.671,10.824 C9.945,8.01 12.933,5.805 16.356,4.461 Z M5.364,14.361 L6.201,18.246 L3.156,21.555 C3.453,18.987 4.221,16.563 5.364,14.361 Z M6.687,35.862 C4.728,33.012 3.453,29.661 3.102,26.04 L8.181,20.523 L12.813,22.788 L16.302,32.697 L13.359,36.231 L6.687,35.862 Z M9.345,39.015 L12.897,39.21 L13.929,42.42 C12.246,41.496 10.71,40.344 9.345,39.015 Z M29.349,44.283 C27.639,44.736 25.851,45 24,45 C21.762,45 19.608,44.64 17.583,43.989 L15.696,38.112 L18.702,34.5 L29.304,34.5 L32.259,38.001 L29.349,44.283 Z M33.354,42.774 L35.058,39.093 L39.39,38.238 C37.674,40.092 35.634,41.634 33.354,42.774 Z M34.602,36.126 L31.701,32.691 L35.235,22.788 L39.846,20.529 L44.895,26.04 C44.595,29.163 43.59,32.079 42.066,34.653 L34.602,36.126 Z" id="Shape"></path>
            </g>
        </g>
    </g>
</svg>