<?xml version="1.0" encoding="UTF-8"?>
<svg width="24px" height="32px" viewBox="0 0 24 32" version="1.1" xmlns="http://www.w3.org/2000/svg" xmlns:xlink="http://www.w3.org/1999/xlink">
    <title>papelera</title>
    <g id="Diseños" stroke="none" stroke-width="1" fill="none" fill-rule="evenodd">
        <g id="Plantilla-Equipos" transform="translate(-883.000000, -204.000000)" fill="#FFFFFF" fill-rule="nonzero">
            <g id="papelera" transform="translate(883.000000, 204.000000)">
                <path d="M21.0912416,2.96924696 L16.0960991,2.96924696 L16.0960991,1.36062002 C16.0960991,0.610583684 15.4835701,0 14.7311442,0 L9.36541208,0 C8.61243758,0 7.99990859,0.610583684 7.99990859,1.36062002 L7.99990859,2.96924696 L2.91506747,2.96924696 C1.30789888,2.96924696 0,4.26998437 0,5.86876759 L0,7.02759144 C0,7.38114481 0.287200101,7.66743285 0.642154247,7.66743285 L1.29994398,7.66743285 L1.29994398,29.8622735 C1.29994398,31.0410582 2.26166666,32 3.44338406,32 L20.5541472,32 C21.7402535,32 22.7052679,31.0410582 22.7052679,29.8622735 L22.7052679,7.66743285 L23.3578457,7.66743285 C23.7127999,7.66743285 24,7.38114481 24,7.02759144 L24,5.86876759 C24,4.26998437 22.6951184,2.96924696 21.0912416,2.96924696 Z M9.28394273,1.36062002 C9.28394273,1.31632334 9.32015134,1.27995623 9.36541208,1.27995623 L14.7311442,1.27995623 C14.7755821,1.27995623 14.812065,1.31632334 14.812065,1.36062002 L14.812065,2.96924696 L9.28394273,2.96924696 L9.28394273,1.36062002 Z M21.4212337,29.8622735 C21.4212337,30.3355921 21.0325397,30.7197703 20.5541472,30.7197703 L3.44338406,30.7197703 C2.96938042,30.7197703 2.58397818,30.3355921 2.58397818,29.8622735 L2.58397818,7.66743285 L21.4212337,7.66743285 L21.4212337,29.8622735 Z M22.7159659,6.38747661 L1.28403417,6.38747661 L1.28403417,5.86876759 C1.28403417,4.97572395 2.015887,4.24947661 2.91506747,4.24947661 L21.0912416,4.24947661 C21.9874047,4.24947661 22.7159659,4.97572395 22.7159659,5.86876759 L22.7159659,6.38747661 Z" id="Shape"></path>
                <path d="M17.4998931,27 C17.7763298,27 18,26.7181791 18,26.3701424 L18,11.6301268 C18,11.281821 17.7763298,11 17.4998931,11 C17.2236701,11 17,11.281821 17,11.6301268 L17,26.3701424 C17,26.7181791 17.2236701,27 17.4998931,27 Z" id="Path"></path>
                <path d="M12.5001069,27 C12.7763299,27 13,26.7181791 13,26.3701424 L13,11.6301268 C13,11.281821 12.7763299,11 12.5001069,11 C12.2236702,11 12,11.281821 12,11.6301268 L12,26.3701424 C12,26.7181791 12.2236702,27 12.5001069,27 Z" id="Path"></path>
                <path d="M6.50010684,27 C6.77654346,27 7,26.7181791 7,26.3701424 L7,11.6301268 C7,11.281821 6.77654346,11 6.50010684,11 C6.22367016,11 6,11.281821 6,11.6301268 L6,26.3701424 C6,26.7181791 6.22367016,27 6.50010684,27 Z" id="Path"></path>
            </g>
        </g>
    </g>
</svg>