<?xml version="1.0" encoding="UTF-8"?>
<svg width="77px" height="28px" viewBox="0 0 77 28" version="1.1" xmlns="http://www.w3.org/2000/svg" xmlns:xlink="http://www.w3.org/1999/xlink">
    <title>flecha curva</title>
    <g id="Diseños" stroke="none" stroke-width="1" fill="none" fill-rule="evenodd">
        <g id="Diseñar-Jugada" transform="translate(-139.000000, -771.000000)" fill="#FFFFFF" fill-rule="nonzero">
            <g id="flecha-curva" transform="translate(139.000000, 771.000000)">
                <g id="Group" transform="translate(35.645860, 15.098517) scale(-1, 1) rotate(100.560490) translate(-35.645860, -15.098517) translate(29.645860, -19.901483)">
                    <path d="M9.74310566,0.61604338 C-1.72237152,20.3688398 0.108372636,48.5984627 11.7268465,67.8789398 C12.018931,68.3640088 9.79526361,70.0776873 9.74310566,69.9913369 C-1.9709911,50.5520678 -3.6823515,22.1642324 7.86020355,2.27988209 C8.15518575,1.77047274 9.93145382,0.291505005 9.74310566,0.61604338" id="Path"></path>
                </g>
                <g id="Group" transform="translate(65.791258, 12.294600) rotate(-64.410945) translate(-65.791258, -12.294600) translate(56.291258, 5.294600)">
                    <path d="M0.579533517,4.48790756 C3.43663376,7.68577351 6.6066821,10.5776458 9.8520698,13.373895 C10.3765476,13.8253516 11.1867355,13.7928977 11.558796,13.1536722 C13.7992726,9.30904689 15.4596361,5.15031437 18.1266494,1.5630019 C18.9640753,0.436968272 17.0765346,-0.644441271 16.2501198,0.466524482 C13.582527,4.05325742 11.9221635,8.21256948 9.68226648,12.0571948 C10.2507889,11.9835941 10.8198908,11.9105729 11.3889927,11.8369721 C8.14360499,9.04072287 4.97297711,6.14885062 2.11645641,2.95098467 C1.18108931,1.9037676 -0.350617778,3.44590629 0.579533517,4.48790756" id="Path"></path>
                </g>
            </g>
        </g>
    </g>
</svg>