<?xml version="1.0" encoding="UTF-8"?>
<svg width="64px" height="62px" viewBox="0 0 64 62" version="1.1" xmlns="http://www.w3.org/2000/svg" xmlns:xlink="http://www.w3.org/1999/xlink">
    <title>Group 2</title>
    <g id="Diseños" stroke="none" stroke-width="1" fill="none" fill-rule="evenodd">
        <g id="compartir" transform="translate(-427.000000, -247.000000)">
            <g id="Group-2" transform="translate(427.000000, 247.000000)">
                <g id="next" transform="translate(23.000000, 15.000000)" fill="#FFFFFF" fill-rule="nonzero">
                    <path d="M22.2260577,13.0132348 L4.50187232,0.770259428 C3.77359789,0.26608962 3.01614082,0 2.36766667,0 C0.943915978,0 0,1.19921872 0,3.12901683 L0,28.8715019 C0,29.8142268 0.272973786,30.6018624 0.677656779,31.1501212 C1.08853785,31.7059009 1.73133043,32 2.42577368,32 C3.07398957,32 3.80148925,31.7333917 4.52950543,31.2299999 L22.2376791,18.9870246 C23.3760598,18.1991296 24.0002582,17.1386613 24,15.999611 C24,14.8610794 23.365988,13.8006111 22.2260577,13.0132348 Z" id="Path"></path>
                </g>
                <ellipse id="Oval" stroke="#FFFFFF" stroke-width="5" cx="32" cy="31" rx="29.5" ry="28.5"></ellipse>
            </g>
        </g>
    </g>
</svg>