<?xml version="1.0" encoding="UTF-8"?>
<svg width="61px" height="48px" viewBox="0 0 61 48" version="1.1" xmlns="http://www.w3.org/2000/svg" xmlns:xlink="http://www.w3.org/1999/xlink">
    <title>campo-de-futbol</title>
    <g id="Diseños" stroke="none" stroke-width="1" fill="none" fill-rule="evenodd">
        <g id="Home" transform="translate(-784.000000, -736.000000)" fill="#FFFFFF" fill-rule="nonzero">
            <g id="campo-de-futbol" transform="translate(814.500000, 760.000000) rotate(90.000000) translate(-814.500000, -760.000000) translate(791.000000, 730.000000)">
                <path d="M46.707,16.293 C46.521,16.107 46.263,16 46,16 C45.737,16 45.479,16.107 45.293,16.293 C45.107,16.479 45,16.737 45,17 C45,17.263 45.107,17.521 45.293,17.707 C45.479,17.893 45.737,18 46,18 C46.263,18 46.521,17.893 46.707,17.707 C46.893,17.521 47,17.263 47,17 C47,16.737 46.893,16.479 46.707,16.293 Z" id="Path"></path>
                <path d="M45.8366337,13.359375 C46.4791609,13.359375 47,12.8347266 47,12.1875 L47,1.171875 C47,0.524648438 46.4791609,0 45.8366337,0 L1.16336634,0 C0.520839109,0 0,0.524648438 0,1.171875 L0,58.828125 C0,59.4753516 0.520839109,60 1.16336634,60 L45.8366337,60 C46.4791609,60 47,59.4753516 47,58.828125 L47,22.1874609 C47,21.5402344 46.4791609,21.0155859 45.8366337,21.0155859 C45.1941064,21.0155859 44.6732673,21.5402344 44.6732673,22.1874609 L44.6732673,28.8428906 L32.3443762,28.8428906 C31.7853787,24.4347656 28.0402698,21.0155859 23.5147748,21.0155859 C18.9892797,21.0155859 15.2441708,24.4348828 14.6851733,28.8428906 L2.32673267,28.8428906 L2.32673267,2.34375 L7.79455446,2.34375 L7.79455446,11.3671875 C7.79455446,12.0144141 8.31539356,12.5390625 8.95792079,12.5390625 L16.6551015,12.5390625 C18.0064678,15.0660937 20.619505,16.6603125 23.5147748,16.6603125 C26.4101609,16.6603125 29.023198,15.0660938 30.374448,12.5390625 L38.0420792,12.5390625 C38.6846064,12.5390625 39.2054455,12.0144141 39.2054455,11.3671875 L39.2054455,2.34375 L44.6732673,2.34375 L44.6732673,12.1875 C44.6732673,12.8347266 45.1941064,13.359375 45.8366337,13.359375 Z M29.6076733,57.6264844 L17.3923267,57.6264844 L17.3923267,54.8725781 L29.6076733,54.8725781 L29.6076733,57.6264844 Z M36.8787129,57.6264844 L31.9344059,57.6264844 L31.9344059,53.7007031 C31.9344059,53.0534766 31.4135668,52.5288281 30.7710396,52.5288281 L16.2289604,52.5288281 C15.5864332,52.5288281 15.0655941,53.0534766 15.0655941,53.7007031 L15.0655941,57.6264844 L10.1212871,57.6264844 L10.1212871,49.7749219 L29.6402475,49.7749219 C29.6410619,49.7749219 29.6417599,49.7750391 29.6425743,49.7750391 C29.6437376,49.7750391 29.644901,49.7749219 29.6460644,49.7749219 L36.8787129,49.7749219 L36.8787129,57.6264844 Z M19.4887129,47.4311719 C20.504448,46.3170703 21.9508614,45.6536719 23.5147748,45.6536719 C25.0788045,45.6536719 26.5251015,46.3170703 27.5408366,47.4311719 L19.4887129,47.4311719 Z M23.5147748,23.3593359 C26.7548663,23.3593359 29.4534109,25.7321484 29.9925149,28.8428906 L17.0369183,28.8428906 C17.5761386,25.7322656 20.2746832,23.3593359 23.5147748,23.3593359 Z M29.9819282,31.1867578 C29.4188589,34.2682031 26.7341584,36.6108984 23.5146584,36.6108984 C20.2951584,36.6108984 17.6104579,34.2682031 17.0473886,31.1867578 L29.9819282,31.1867578 Z M14.6926188,31.1867578 C15.2776757,35.5660547 19.0095223,38.9546484 23.5147748,38.9546484 C28.0200272,38.9546484 31.7518738,35.5661719 32.3369307,31.1867578 L44.6732673,31.1867578 L44.6732673,57.65625 L39.2054455,57.65625 L39.2054455,48.6030469 C39.2054455,47.9558203 38.6846064,47.4311719 38.0420792,47.4311719 L30.374448,47.4311719 C29.023198,44.9041406 26.4100446,43.3099219 23.5147748,43.3099219 C20.619505,43.3099219 18.0064678,44.9041406 16.6551015,47.4311719 L8.95792079,47.4311719 C8.31539356,47.4311719 7.79455446,47.9558203 7.79455446,48.6030469 L7.79455446,57.65625 L2.32673267,57.65625 L2.32673267,31.1867578 L14.6926188,31.1867578 Z M23.5147748,14.3165625 C21.9508614,14.3165625 20.504448,13.6531641 19.4887129,12.5390625 L27.5408366,12.5390625 C26.5251015,13.6531641 25.0788045,14.3165625 23.5147748,14.3165625 Z M36.8787129,10.1953125 L29.6388515,10.1953125 C29.6365248,10.1953125 29.6340817,10.1953125 29.631755,10.1953125 L10.1212871,10.1953125 L10.1212871,2.34375 L15.0655941,2.34375 L15.0655941,6.29929687 C15.0655941,6.94652344 15.5864332,7.47117187 16.2289604,7.47117187 L19.7384876,7.47117187 C20.3810149,7.47117187 20.901854,6.94652344 20.901854,6.29929687 C20.901854,5.65207031 20.3810149,5.12742187 19.7384876,5.12742187 L17.3923267,5.12742187 L17.3923267,2.37351562 L29.6076733,2.37351562 L29.6076733,5.12742187 L27.2615124,5.12742187 C26.6189851,5.12742187 26.098146,5.65207031 26.098146,6.29929687 C26.098146,6.94652344 26.6189851,7.47117187 27.2615124,7.47117187 L30.7710396,7.47117187 C31.4135668,7.47117187 31.9344059,6.94652344 31.9344059,6.29929687 L31.9344059,2.34375 L36.8787129,2.34375 L36.8787129,10.1953125 Z" id="Shape"></path>
                <path d="M24.707,5.293 C24.521,5.107 24.263,5 24,5 C23.737,5 23.479,5.107 23.293,5.293 C23.107,5.479 23,5.737 23,6 C23,6.264 23.107,6.521 23.293,6.708 C23.479,6.894 23.737,7 24,7 C24.263,7 24.521,6.894 24.707,6.708 C24.893,6.521 25,6.264 25,6 C25,5.737 24.893,5.479 24.707,5.293 Z" id="Path"></path>
            </g>
        </g>
    </g>
</svg>