<?xml version="1.0" encoding="UTF-8"?>
<svg width="42px" height="54px" viewBox="0 0 42 54" version="1.1" xmlns="http://www.w3.org/2000/svg" xmlns:xlink="http://www.w3.org/1999/xlink">
    <title>jpg</title>
    <g id="Diseños" stroke="none" stroke-width="1" fill="none" fill-rule="evenodd">
        <g id="compartir" transform="translate(-776.000000, -255.000000)" fill="#FFFFFF" fill-rule="nonzero">
            <g id="jpg" transform="translate(776.000000, 255.000000)">
                <path d="M41.4857333,11.3465172 L36.0556,5.92975862 L31.3450667,1.22989655 L31.3450667,1.22989655 L30.6264,0.513 C30.2997333,0.187137931 29.848,0 29.386,0 L2.2988,0 C1.19186667,0 0,0.852827586 0,2.7242069 L0,36.3103448 L0,51.7068621 L0,52.137931 C0,52.9172069 0.785866667,53.676931 1.71546667,53.9162069 C1.76213333,53.9283103 1.80693333,53.946 1.85546667,53.9553103 C2.00106667,53.9841724 2.14946667,54 2.2988,54 L39.7012,54 C39.8505333,54 39.9989333,53.9841724 40.1445333,53.9553103 C40.1930667,53.946 40.2388,53.9283103 40.2864,53.9152759 C41.2150667,53.676 42,52.9172069 42,52.137931 L42,51.7068621 L42,36.3103448 L42,13.014 C42,12.2998966 41.9132,11.772 41.4857333,11.3465172 Z M38.6726667,11.1724138 L30.8,11.1724138 L30.8,3.31913793 L34.7648,7.27510345 L38.6726667,11.1724138 Z M2.2988,1.86206897 L28.9874667,1.86206897 C28.9566667,1.97937931 28.9333333,2.10041379 28.9333333,2.22610345 L28.9333333,13.0344828 L39.7674667,13.0344828 C39.8934667,13.0344828 40.0148,13.0112069 40.1324,12.9804828 C40.1324,12.9944483 40.1333333,13.0000345 40.1333333,13.014 L40.1333333,24.8316207 L32.3764,17.4801724 C32.1944,17.307931 31.9610667,17.2157586 31.6997333,17.225069 C31.4486667,17.2343793 31.2134667,17.3433103 31.0436,17.5276552 L21.9016,27.5148621 L17.4748,23.0989655 C17.1304,22.7554138 16.5806667,22.734 16.2101333,23.0477586 L1.86666667,35.2266207 L1.86666667,2.7242069 C1.86666667,2.52217241 1.89746667,1.86206897 2.2988,1.86206897 Z M2.2988,52.137931 C2.23253333,52.137931 2.1728,52.1137241 2.114,52.0923103 C1.9684,52.0234138 1.86666667,51.8781724 1.86666667,51.7068621 L1.86666667,38.1724138 L40.1333333,38.1724138 L40.1333333,51.7068621 C40.1333333,51.8781724 40.0306667,52.0234138 39.886,52.0923103 C39.8272,52.1146552 39.7674667,52.137931 39.7012,52.137931 L2.2988,52.137931 Z M3.47013333,36.3103448 L16.7654667,25.0224828 L26.3909333,34.6251724 C26.7558667,34.9892069 27.3457333,34.9892069 27.7106667,34.6251724 C28.0756,34.2611379 28.0756,33.6727241 27.7106667,33.3086897 L23.2241333,28.8332069 L31.7809333,19.4846897 L40.1333333,27.3994138 L40.1333333,36.3103448 L3.47013333,36.3103448 Z" id="Shape"></path>
                <path d="M11.6474213,47.4499952 C11.6320143,47.8809547 11.5087577,48.1882307 11.2760298,48.3679583 C11.043302,48.5476858 10.7311061,48.6385158 10.3394421,48.6385158 C10.1845605,48.6385158 10.0183263,48.6172577 9.84073954,48.572809 C9.66315277,48.5283602 9.49286409,48.4781138 9.3306844,48.4211035 C9.1676938,48.3631269 9.01848849,48.3022514 8.88144664,48.2365446 C8.7444048,48.1708378 8.638988,48.1060972 8.56519624,48.0452218 L8,49.1148903 C8.14758352,49.2472703 8.32841388,49.3661223 8.54330198,49.4714465 C8.75737918,49.5767707 8.98118716,49.6714658 9.21391502,49.7555319 C9.44664288,49.839598 9.67207266,49.9004735 9.89020435,49.9400908 C10.108336,49.9797082 10.2980863,50 10.4610769,50 C10.7862472,50 11.1024976,49.9623152 11.4090172,49.8879119 C11.7155368,49.8135086 11.9871878,49.6811286 12.2239702,49.4917383 C12.4607525,49.3023481 12.648881,49.051116 12.7891664,48.7390086 C12.9294518,48.4269011 13,48.0403904 13,47.5833414 L13,40 L11.6474213,40 L11.6474213,47.4499952 L11.6474213,47.4499952 Z" id="Path"></path>
                <path d="M20.9558709,41.7324335 C20.6443162,41.4885867 20.2925308,41.3045852 19.9005146,41.1831084 C19.5084984,41.0607384 19.1118041,41 18.7113675,41 L16,41 L16,50 L17.5353189,50 L17.5353189,46.7513894 L18.6739436,46.7513894 C19.1679401,46.7513894 19.6207703,46.6826121 20.0296273,46.5441644 C20.4384843,46.4057166 20.7883986,46.2101032 21.0784344,45.9582175 C21.3684703,45.7063319 21.5939498,45.394601 21.7567441,45.0239182 C21.9186028,44.6532354 22,44.2405717 22,43.7841405 C22,43.3527193 21.9036332,42.9641723 21.7118353,42.6176062 C21.5200374,42.2710401 21.2664899,41.9771735 20.9558709,41.7324335 Z M20.373928,44.7059349 C20.2794324,44.9542477 20.1568689,45.1471814 20.0034305,45.2856292 C19.8499922,45.424077 19.6815843,45.5241167 19.4982068,45.5848551 C19.3148293,45.6455935 19.1286449,45.6768559 18.941525,45.6768559 L17.5343833,45.6768559 L17.5343833,42.1111552 L18.6851707,42.1111552 C19.077187,42.1111552 19.392484,42.1701072 19.6319975,42.2880111 C19.8705754,42.405915 20.0558241,42.5524017 20.1886792,42.7274712 C20.3205988,42.9025407 20.4076095,43.0856491 20.4506471,43.2767963 C20.4927491,43.4679436 20.5142679,43.6367606 20.5142679,43.7832473 C20.5142679,44.1503573 20.4674879,44.4576221 20.373928,44.7059349 Z" id="Shape"></path>
                <path d="M26.8942679,45.9798215 L28.4853039,45.9798215 L28.4853039,48.3934808 C28.4173427,48.4914629 28.3112116,48.5661622 28.1669105,48.6185487 C28.0226094,48.6719053 27.8717915,48.7136205 27.7153877,48.7446643 C27.5580529,48.7757082 27.4016492,48.798021 27.2443144,48.8106325 C27.0869797,48.8242142 26.962229,48.831005 26.8691315,48.831005 C26.5637718,48.831005 26.2723766,48.7563058 25.9968081,48.6059371 C25.7212395,48.4555685 25.4745312,48.22565 25.258545,47.9161816 C25.0425589,47.6067132 24.8721905,47.2089639 24.7493018,46.7229336 C24.6264131,46.2369034 24.5603139,45.661622 24.5519351,44.9990299 C24.5603139,44.3180054 24.628275,43.7436942 24.7558186,43.2751261 C24.8833621,42.806558 25.0593164,42.4243306 25.2836813,42.1274738 C25.5080463,41.830617 25.7631334,41.6220411 26.0470807,41.4978657 C26.3310281,41.3736903 26.629871,41.3125728 26.9445405,41.3125728 C27.2247639,41.3125728 27.4956776,41.37078 27.7591435,41.4852542 C28.0216784,41.5997284 28.2553531,41.7859915 28.4592366,42.0421032 L29.5158931,41.0603415 C29.1677085,40.7072177 28.7729751,40.4414047 28.332624,40.2648428 C27.8913419,40.0873108 27.4165448,40 26.9073015,40 C26.3552334,40 25.8422663,40.1076834 25.3674691,40.3249903 C24.8917409,40.5422972 24.4783881,40.8575863 24.1264796,41.2737679 C23.7745711,41.6899496 23.4980716,42.2089639 23.2988429,42.8317811 C23.0996143,43.4555685 23,44.1783081 23,45 C23,45.8216919 23.0996143,46.5473419 23.2988429,47.1750097 C23.4980716,47.8026775 23.7736401,48.3246023 24.1264796,48.7398137 C24.4783881,49.1559953 24.889879,49.4693442 25.3609523,49.6818005 C25.8320255,49.8942569 26.3477856,50 26.9073015,50 C27.1875249,50 27.4696103,49.9786574 27.7535577,49.9340318 C28.037505,49.8894063 28.3140045,49.814707 28.5811943,49.7089639 C28.8483841,49.6032208 29.1034712,49.4683741 29.3445937,49.3044237 C29.5857162,49.1404734 29.8044953,48.9309274 30,48.6748157 L30,44.895227 L26.8942679,44.895227 L26.8942679,45.9798215 Z" id="Path"></path>
                <path d="M11.5,23 C14.5329503,23 17,20.5329503 17,17.5 C17,14.4670497 14.5329503,12 11.5,12 C8.46704974,12 6,14.4670497 6,17.5 C6,20.5329503 8.46704974,23 11.5,23 Z M11.5,13.97522 C13.4436164,13.97522 15.02478,15.5563836 15.02478,17.5 C15.02478,19.4436164 13.4436164,21.02478 11.5,21.02478 C9.55638355,21.02478 7.97521997,19.4436164 7.97521997,17.5 C7.97521997,15.5563836 9.55638355,13.97522 11.5,13.97522 Z" id="Shape"></path>
            </g>
        </g>
    </g>
</svg>