<?xml version="1.0" encoding="UTF-8"?>
<svg width="47px" height="47px" viewBox="0 0 47 47" version="1.1" xmlns="http://www.w3.org/2000/svg" xmlns:xlink="http://www.w3.org/1999/xlink">
    <title>configuraciones</title>
    <g id="Diseños" stroke="none" stroke-width="1" fill="none" fill-rule="evenodd">
        <g id="Home" transform="translate(-979.000000, -733.000000)" fill="#FFFFFF" fill-rule="nonzero">
            <g id="configuraciones" transform="translate(979.000000, 733.000000)">
                <path d="M28.675,27.625 L27.8225,27.625 C27.5018438,27.6255812 27.2149969,27.4255344 27.10485,27.12435 C27.0103,26.87635 26.908775,26.633775 26.7995,26.393525 C26.6636813,26.10135 26.7256813,25.7554094 26.9545,25.528625 L27.5621,24.92025 C28.4641031,24.0103031 28.4624563,22.5428406 27.558225,21.635025 L25.368075,19.444875 C24.4590969,18.541225 22.9910531,18.541225 22.082075,19.444875 L21.474475,20.0517 C21.2472063,20.2796469 20.9018469,20.34155 20.609575,20.2067 C20.369325,20.097425 20.12675,19.9959 19.877975,19.8967 C19.5752406,19.7873281 19.3738375,19.4994156 19.375,19.1775 L19.375,18.325 C19.375,17.0409219 18.3340781,16 17.05,16 L13.95,16 C12.6659219,16 11.625,17.0409219 11.625,18.325 L11.625,19.1775 C11.6255812,19.4981563 11.4255344,19.7850031 11.12435,19.89515 C10.87635,19.9897 10.633775,20.091225 10.393525,20.2005 C10.1012531,20.3356406 9.75579687,20.2737375 9.528625,20.0455 L8.92025,19.4379 C8.01136875,18.5348312 6.54390625,18.5348312 5.635025,19.4379 L3.444875,21.635025 C2.541225,22.5440031 2.541225,24.0120469 3.444875,24.921025 L4.0517,25.528625 C4.28051875,25.7554094 4.34251875,26.10135 4.2067,26.393525 C4.097425,26.633775 3.9959,26.87635 3.900575,27.125125 C3.78965312,27.4280531 3.50009375,27.6282938 3.1775,27.625 L2.325,27.625 C1.04092187,27.625 0,28.6659219 0,29.95 L0,33.05 C0,34.3340781 1.04092187,35.375 2.325,35.375 L3.1775,35.375 C3.49815625,35.3744188 3.78500313,35.5744656 3.89515,35.87565 C3.9897,36.12365 4.091225,36.366225 4.2005,36.606475 C4.33631875,36.89865 4.27431875,37.2445906 4.0455,37.471375 L3.4379,38.07975 C2.53483125,38.9886313 2.53483125,40.4560938 3.4379,41.364975 L5.62805,43.555125 C6.53702813,44.458775 8.00507188,44.458775 8.91405,43.555125 L9.52165,42.9483 C9.74891875,42.7203531 10.0942781,42.65845 10.38655,42.7933 C10.6268,42.902575 10.869375,43.0041 11.11815,43.1033 C11.4224344,43.2114125 11.6255813,43.4996156 11.625,43.8225 L11.625,44.675 C11.625,45.9590781 12.6659219,47 13.95,47 L17.05,47 C18.3340781,47 19.375,45.9590781 19.375,44.675 L19.375,43.8225 C19.3744188,43.5018437 19.5744656,43.2149969 19.87565,43.10485 C20.12365,43.0103 20.366225,42.908775 20.606475,42.7995 C20.8987469,42.6643594 21.2442031,42.7262625 21.471375,42.9545 L22.07975,43.5621 C22.9898906,44.4637156 24.4569656,44.4619719 25.364975,43.558225 L27.555125,41.368075 C28.458775,40.4590969 28.458775,38.9910531 27.555125,38.082075 L26.9483,37.474475 C26.7194813,37.2476906 26.6574813,36.90175 26.7933,36.609575 C26.902575,36.369325 27.0041,36.12675 27.1033,35.877975 C27.2126719,35.5752406 27.5005844,35.3738375 27.8225,35.375 L28.675,35.375 C29.9590781,35.375 31,34.3340781 31,33.05 L31,29.95 C31,28.6659219 29.9590781,27.625 28.675,27.625 Z M29.45,33.05 C29.45,33.4779938 29.1029938,33.825 28.675,33.825 L27.8225,33.825 C26.8590781,33.8285844 25.9968906,34.424075 25.6525,35.32385 C25.57035,35.54085 25.4815156,35.7544594 25.3859,35.964775 C24.9874531,36.8444 25.1722906,37.8786375 25.8509,38.565675 L26.45695,39.1725 C26.7597813,39.4749438 26.7600719,39.9657125 26.4575313,40.2685438 C26.4573375,40.2687375 26.4571438,40.2689313 26.45695,40.269125 L24.2668,42.459275 C23.9641625,42.7618156 23.4735875,42.7618156 23.17095,42.459275 L22.56335,41.85245 C21.8766031,41.1732594 20.8419781,40.988325 19.96245,41.38745 C19.752425,41.482775 19.538525,41.5719 19.323075,41.65405 C18.4239781,41.9983438 17.828875,42.8597563 17.825,43.8225 L17.825,44.675 C17.825,45.1029938 17.4779938,45.45 17.05,45.45 L13.95,45.45 C13.5220063,45.45 13.175,45.1029938 13.175,44.675 L13.175,43.8225 C13.1714156,42.8590781 12.575925,41.9968906 11.67615,41.6525 C11.45915,41.57035 11.2455406,41.4815156 11.035225,41.3859 C10.1556,40.9876469 9.12145938,41.1725813 8.434325,41.8509 L7.8275,42.45695 C7.52505625,42.7597813 7.0342875,42.7600719 6.73145625,42.4575313 C6.7312625,42.4573375 6.73106875,42.4571438 6.730875,42.45695 L4.540725,40.269125 C4.23818438,39.9664875 4.23818438,39.4759125 4.540725,39.173275 L5.14755,38.565675 C5.82615938,37.8786375 6.01099688,36.8444 5.61255,35.964775 C5.517225,35.75475 5.4281,35.54085 5.34595,35.3254 C5.00243125,34.4253344 4.140825,33.8292625 3.1775,33.825 L2.325,33.825 C1.89700625,33.825 1.55,33.4779938 1.55,33.05 L1.55,29.95 C1.55,29.5220063 1.89700625,29.175 2.325,29.175 L3.1775,29.175 C4.14092188,29.1714156 5.00310938,28.575925 5.3475,27.67615 C5.42965,27.45915 5.51848437,27.2455406 5.6141,27.035225 C6.01254688,26.1556 5.8276125,25.1213625 5.1491,24.434325 L4.53995,23.8275 C4.23711875,23.5250563 4.23682813,23.0342875 4.53936875,22.7314563 C4.5395625,22.7312625 4.53975625,22.7310688 4.53995,22.730875 L6.7301,20.540725 C7.0327375,20.2381844 7.5233125,20.2381844 7.82595,20.540725 L8.43355,21.14755 C9.12029688,21.8267406 10.1549219,22.011675 11.03445,21.61255 C11.244475,21.517225 11.458375,21.4281 11.673825,21.34595 C12.5741813,21.0027219 13.1706406,20.1410188 13.175,19.1775 L13.175,18.325 C13.175,17.8970063 13.5220063,17.55 13.95,17.55 L17.05,17.55 C17.4779938,17.55 17.825,17.8970063 17.825,18.325 L17.825,19.1775 C17.8285844,20.1409219 18.424075,21.0031094 19.32385,21.3475 C19.54085,21.42965 19.7544594,21.5184844 19.964775,21.6141 C20.8443031,22.013225 21.8789281,21.8282906 22.565675,21.1491 L23.1725,20.54305 C23.4763,20.2425438 23.965325,20.2425438 24.269125,20.54305 L26.459275,22.7332 C26.7618156,23.0358375 26.7618156,23.5264125 26.459275,23.82905 L25.85245,24.43665 C25.1739375,25.1236875 24.9890031,26.157925 25.38745,27.03755 C25.482775,27.247575 25.5719,27.461475 25.65405,27.676925 C25.9983438,28.5760219 26.8597563,29.171125 27.8225,29.175 L28.675,29.175 C29.1029938,29.175 29.45,29.5220063 29.45,29.95 L29.45,33.05 L29.45,33.05 Z" id="Shape"></path>
                <path d="M21.9851504,31.6866605 C21.9773745,31.5000561 21.9641554,31.3142292 21.9416052,31.1291798 C21.9167223,30.9301351 21.8871737,30.7326454 21.8459613,30.5390433 C21.8187456,30.4123078 21.7829763,30.2871273 21.7487622,30.1611693 C21.705217,30.0010005 21.6562287,29.8431643 21.6017972,29.6876606 C21.5636952,29.5795855 21.5240379,29.472288 21.4836031,29.365768 C21.383488,29.1167677 21.2689875,28.873696 21.1406847,28.6380107 C21.130576,28.6201278 21.1243553,28.6006898 21.1142465,28.5828069 C20.9119752,28.2228158 20.6777254,27.8815824 20.4144131,27.5634802 C20.3918629,27.5354895 20.3662023,27.5090539 20.3428745,27.4818408 C20.2355667,27.3551052 20.1251486,27.2322573 20.0092872,27.114852 C19.948635,27.051873 19.8848724,26.9927816 19.8211098,26.9321352 C19.7433505,26.859826 19.6655912,26.7882943 19.587832,26.7198727 C19.4934516,26.6379417 19.3973217,26.5586348 19.299345,26.481952 L19.1718198,26.3870948 C17.9685922,25.4859509 16.5056487,24.9992243 15.0023675,25.0000009 C14.9246082,25.0000009 14.8468489,25.0116646 14.7690896,25.0147747 C14.6034624,25.0194398 14.4370575,25.02877 14.2698751,25.0458754 C14.1820071,25.0552057 14.0933615,25.0653134 14.0054935,25.0777537 C13.7519983,25.1110898 13.5004471,25.1581297 13.2520062,25.2184845 C9.50779984,26.1859119 7.2568632,30.0052769 8.22438299,33.7491254 C8.86200905,36.2161915 10.7896615,38.1421047 13.2574493,38.7776288 C13.2698908,38.7776288 13.2831099,38.7815164 13.296329,38.7846265 C13.5648901,38.8515902 13.8369503,38.9035868 14.1112462,38.9401302 C14.2924253,38.9626782 14.4736044,38.9673433 14.6555611,38.975896 C14.7768656,38.9821161 14.8888389,39.0000009 15.0155865,39.0000009 C15.2372005,39.0000009 15.4673679,38.9852262 15.7022009,38.9619007 C15.7270839,38.9619007 15.7519669,38.954903 15.7799602,38.9517929 C15.9689153,38.9307999 16.1602031,38.9028093 16.3553789,38.8639333 C16.4331381,38.8491605 16.5054543,38.8297225 16.5801032,38.8126171 C16.7169595,38.7807389 16.8530382,38.7473056 16.9930049,38.7060971 C17.1018679,38.6734413 17.2076205,38.6353429 17.3141507,38.598022 C17.4206809,38.5607011 17.5310991,38.5202702 17.6415173,38.4782842 C17.7519355,38.4362982 17.844469,38.3880921 17.9447785,38.3414409 C18.075414,38.281572 18.205272,38.2224806 18.3335748,38.152504 L18.3382404,38.152504 C19.0639288,37.7640363 19.7342138,37.2800311 20.3312106,36.7133173 C20.4924639,36.5628675 20.6327222,36.3912303 20.7480004,36.2032652 C21.3549115,35.2303952 21.7536222,34.1423554 21.919055,33.0076644 C21.9408276,32.8576033 21.9602675,32.7075423 21.9719314,32.5543711 C21.9828177,32.4136403 21.9905936,32.273687 21.993704,32.1337336 C21.993704,32.0894151 21.9999643,32.0474291 21.9999643,32.0031105 C22.0007023,31.8934804 21.989816,31.792403 21.9851504,31.6866605 Z M20.4354081,32.1959351 C20.4354081,32.2604691 20.4299649,32.3250032 20.426077,32.3887597 C20.4120803,32.5769192 20.3879749,32.7650786 20.3560936,32.9540156 C20.0654683,34.5705737 19.0616933,35.9701069 17.6236327,36.763856 C17.5272112,36.8143947 17.4323448,36.8618233 17.3374785,36.9053644 L17.2729383,36.9364651 C16.8211569,37.1415356 16.3442982,37.2858625 15.8546091,37.3656553 C15.820395,37.3710979 15.7854034,37.3773181 15.7504117,37.3819832 C15.6532126,37.3959785 15.5575687,37.4076413 15.4627024,37.416194 C15.3375099,37.4270792 15.2115399,37.4332994 15.0832371,37.435632 C15.0288056,37.435632 14.9751517,37.435632 14.9207202,37.435632 C14.7367223,37.4334938 14.553016,37.4221226 14.3701846,37.4014211 L14.2768734,37.3905359 C14.0630354,37.3625452 13.850947,37.3226002 13.6415801,37.270798 C10.7293009,36.5254494 8.97271882,33.5605772 9.71804148,30.6485762 C10.2105493,28.7244124 11.7122753,27.2212749 13.636137,26.7268703 L13.636137,26.7260928 C14.082864,26.6134498 14.5416438,26.5559135 15.0023675,26.5550388 C15.2246618,26.5563022 15.4467617,26.5713666 15.6672093,26.6001348 C15.7263063,26.6071325 15.7846258,26.6180178 15.8429452,26.6265705 C16.0109053,26.6530061 16.1773101,26.6864394 16.3413822,26.7284254 C16.3950361,26.7424207 16.44869,26.754861 16.5015663,26.7696339 C16.9150513,26.8889829 17.3130815,27.0565382 17.6873953,27.2688007 C17.7472699,27.303789 17.8055894,27.3403324 17.8646864,27.3768758 C17.9875461,27.4546276 18.1065178,27.5323795 18.2239343,27.6210166 C18.2869193,27.6668901 18.3506819,27.7119862 18.4113341,27.7609699 C18.5639367,27.8828459 18.7100269,28.0125943 18.8491188,28.1497291 C18.9043279,28.2057104 18.9548715,28.2671344 19.0085254,28.3254483 C19.0979485,28.4226381 19.1850389,28.5221604 19.2682413,28.6271254 C19.3257832,28.6994346 19.3809923,28.7740764 19.4354238,28.8494957 C19.5131831,28.9614584 19.5909423,29.0780861 19.6609257,29.1962689 C19.6998053,29.260803 19.738685,29.323782 19.7783422,29.389871 C19.8786517,29.5744345 19.9679776,29.7647321 20.0458341,29.9597921 C20.0769378,30.0375439 20.103376,30.1152957 20.1313693,30.1930476 C20.1819128,30.336111 20.225458,30.4807294 20.2635601,30.6269029 C20.2829999,30.7046547 20.3047725,30.7738539 20.3211019,30.8492732 C20.3664939,31.0593975 20.3994444,31.2720488 20.4198562,31.4860608 C20.4245218,31.5428196 20.4245218,31.600356 20.4284097,31.6571148 C20.439296,31.8359441 20.4424064,32.0155508 20.4354081,32.1959351 Z" id="Shape"></path>
                <path d="M44.6167363,16.6823254 L42.1182816,16.6823254 C41.7851212,16.6857016 41.4871139,16.4758817 41.377881,16.1612014 C41.1315111,15.4233064 40.8334045,14.7035832 40.4857459,14.0075926 C40.3381822,13.7070128 40.3996505,13.3456618 40.6382748,13.110719 L42.4098341,11.3368317 C43.3397042,10.4062956 43.3397042,8.89833253 42.4098341,7.96779639 L39.0319551,4.59558346 C38.1013899,3.66574242 36.5933798,3.66574242 35.6628147,4.59558346 L33.8920497,6.36549875 C33.6573976,6.60401629 33.2965317,6.66578061 32.9959426,6.51881727 C32.299831,6.16938213 31.5798868,5.86969607 30.8414722,5.62194367 C30.5254912,5.51380646 30.3141751,5.21551059 30.3171542,4.88156618 L30.3171542,2.38318935 C30.3171542,1.06697373 29.2501472,0 27.9338905,0 L23.1673632,0 C21.8511065,0 20.7840995,1.06697373 20.7840995,2.38318935 L20.7840995,4.88156618 C20.7874758,5.21471619 20.5777486,5.51271416 20.2629592,5.62194367 C19.5249418,5.86959677 18.8051962,6.16908423 18.1092832,6.51802287 C17.8086941,6.66607851 17.4471331,6.60461208 17.2123816,6.36549875 L15.438439,4.59399467 C14.5067815,3.66683471 13.0009561,3.66683471 12.0692986,4.59399467 L8.69777492,7.9654132 C7.76740836,8.89604864 7.76740836,10.4046075 8.69777492,11.3352429 L11.3026821,13.9448353 C11.6177694,14.2500821 12.1207374,14.2421381 12.4259937,13.9269614 C12.7238024,13.6195299 12.7244975,13.1313733 12.4275826,12.8231475 L9.82108654,10.2143495 C9.51096435,9.90413774 9.51096435,9.40128478 9.82108654,9.09107297 L13.1926102,5.71965444 C13.5028317,5.40954192 14.0057004,5.40954192 14.3159218,5.71965444 L16.0906589,7.49115852 C16.8087164,8.21346349 17.9089898,8.39399009 18.8202902,7.93919812 C19.4495711,7.62412063 20.1002021,7.35362863 20.7674166,7.12970814 C21.7304538,6.80370769 22.3771126,5.89829434 22.3729419,4.88156618 L22.3729419,2.38318935 C22.3729419,1.94448391 22.728644,1.5887929 23.1673632,1.5887929 L27.9338905,1.5887929 C28.3726097,1.5887929 28.7283118,1.94448391 28.7283118,2.38318935 L28.7283118,4.88156618 C28.7242404,5.89809574 29.3708992,6.80321119 30.3338371,7.12891374 C31.0013495,7.35293354 31.6522784,7.62362413 32.2817579,7.93919812 C33.193257,8.3916069 34.2920408,8.2108817 35.0105948,7.49036412 L36.7853319,5.71965444 C37.0955533,5.40954192 37.598422,5.40954192 37.9086435,5.71965444 L41.2801672,9.09186737 C41.5897928,9.40197988 41.5897928,9.90423704 41.2801672,10.2143495 L39.5086078,11.9890312 C38.7869754,12.7074635 38.6065425,13.8072061 39.0605542,14.7185774 C39.3756416,15.3478387 39.646142,15.9984494 39.8700695,16.6656431 C40.1958815,17.6288488 41.1014224,18.2754875 42.1182816,18.2711183 L44.6167363,18.2711183 C45.0554554,18.2711183 45.4111575,18.6268094 45.4111575,19.0655148 L45.4111575,23.8318935 C45.4111575,24.2705989 45.0554554,24.6262899 44.6167363,24.6262899 L42.1182816,24.6262899 C41.1017203,24.6222187 40.1965766,25.2688574 39.8708639,26.2317652 C39.6469364,26.8992568 39.3761381,27.5501654 39.0605542,28.1796253 C38.6073369,29.0909966 38.7881671,30.1901434 39.5094022,30.9083771 L41.2809616,32.6830587 C41.5910838,32.9932705 41.5910838,33.4961235 41.2809616,33.8063353 L37.907849,37.1777538 C37.5977269,37.4873699 37.095454,37.4873699 36.7853319,37.1777538 L34.1748637,34.5729279 C33.8696073,34.2577511 33.3666394,34.2498071 33.0515521,34.555054 C32.7363655,34.8603008 32.7284212,35.3632531 33.0336776,35.6783305 C33.040033,35.6848843 33.0465869,35.6914381 33.0531409,35.6977933 L35.6628147,38.3026192 C36.5933798,39.2324603 38.1013899,39.2324603 39.0319551,38.3026192 L42.4034788,34.9319951 C43.3338453,34.0013596 43.3338453,32.4928008 42.4034788,31.5621653 L40.6343027,29.7898669 C40.3959763,29.5551227 40.3343094,29.1943674 40.4809794,28.8937877 C40.8304254,28.1976978 41.1301209,27.477776 41.377881,26.7393845 C41.4860216,26.4234133 41.7843267,26.2121039 42.1182816,26.2150828 L44.6167363,26.2150828 C45.932993,26.2150828 47,25.1481091 47,23.8318935 L47,19.0655148 C47,17.7492992 45.932993,16.6823254 44.6167363,16.6823254 Z" id="Path"></path>
                <path d="M33.1232141,13.8736383 C29.2794599,10.0421206 23.0561306,10.0421206 19.2123763,13.8736383 C18.9220943,14.1739012 18.9304178,14.6524512 19.2310096,14.9424157 C19.5242238,15.225294 19.9891102,15.225294 20.2823244,14.9424157 C23.5109909,11.6737256 28.7809957,11.6384839 32.0532661,14.8636179 C35.3255364,18.0887519 35.3608167,23.3529906 32.1321502,26.6216806 C32.1060446,26.6481355 32.0797499,26.6744014 32.0532661,26.7004784 C31.7526743,26.9905373 31.7443508,27.4689928 32.0347274,27.7692558 C32.325104,28.0695187 32.8040836,28.0778331 33.1046754,27.7877742 C33.110918,27.7817273 33.1171607,27.7754915 33.1232141,27.7692558 C36.9589286,23.9297071 36.9589286,17.713187 33.1232141,13.8736383 Z" id="Path"></path>
            </g>
        </g>
    </g>
</svg>