<?xml version="1.0" encoding="UTF-8"?>
<svg width="58px" height="59px" viewBox="0 0 58 59" version="1.1" xmlns="http://www.w3.org/2000/svg" xmlns:xlink="http://www.w3.org/1999/xlink">
    <title>doble flecha</title>
    <g id="Diseños" stroke="none" stroke-width="1" fill="none" fill-rule="evenodd">
        <g id="Diseñar-Jugada" transform="translate(-251.000000, -758.000000)" fill="#FFFFFF" fill-rule="nonzero">
            <g id="doble-flecha" transform="translate(251.000000, 758.000000)">
                <g id="Group" transform="translate(25.562903, 24.576456) rotate(-140.470811) translate(-25.562903, -24.576456) translate(6.562903, 8.576456)">
                    <path d="M3.70174882,30.6751987 C14.251733,20.9097444 25.6731088,12.015251 37.0174882,3.20243343 C36.0483704,3.07769222 35.0799929,2.95220851 34.1108751,2.8267248 C34.6683584,4.141705 38.9483204,4.23080586 37.306965,0.953379207 C36.7191273,-0.22052463 35.2976557,-0.120286162 34.4003518,0.577670579 C23.0559724,9.38974568 11.6338562,18.2849816 1.08461241,28.0504359 C-0.672977936,29.6772691 1.95082163,32.2960919 3.70174882,30.6751987" id="Path"></path>
                </g>
                <g id="Group" transform="translate(25.562903, 33.837517) rotate(-140.470811) translate(-25.562903, -33.837517) translate(6.562903, 17.837517)">
                    <path d="M3.70174882,30.6751987 C14.251733,20.9097444 25.6731088,12.015251 37.0174882,3.20243343 C36.0483704,3.07769222 35.0799929,2.95220851 34.1108751,2.8267248 C34.6683584,4.141705 38.9483204,4.23080586 37.306965,0.953379207 C36.7191273,-0.22052463 35.2976557,-0.120286162 34.4003518,0.577670579 C23.0559724,9.38974568 11.6338562,18.2849816 1.08461241,28.0504359 C-0.672977936,29.6772691 1.95082163,32.2960919 3.70174882,30.6751987" id="Path"></path>
                </g>
                <g id="Group" transform="translate(43.954281, 28.326361) rotate(-129.059385) translate(-43.954281, -28.326361) translate(33.954281, 19.326361)">
                    <path d="M2.22104949,1.64465353 C2.14183206,6.55039884 1.25045086,11.3276904 0.296139932,16.1242872 C0.0932840787,17.1444921 0.926917988,18.1312842 2.00412699,17.8372514 C7.2428424,16.4071824 12.460828,15.029089 17.9223887,14.9169704 C19.7103335,14.8805875 19.7132949,12.0961854 17.9223887,12.1325683 C12.2135512,12.2498844 6.74606766,13.6561931 1.26525786,15.1523452 L2.97324492,16.8653094 C3.97567859,11.8251703 4.91444218,6.79765375 4.99736136,1.64465353 C5.026235,-0.151471476 2.24992314,-0.149243955 2.22104949,1.64465353" id="Path"></path>
                </g>
            </g>
        </g>
    </g>
</svg>