<?xml version="1.0" encoding="UTF-8"?>
<svg width="51px" height="47px" viewBox="0 0 51 47" version="1.1" xmlns="http://www.w3.org/2000/svg" xmlns:xlink="http://www.w3.org/1999/xlink">
    <title>linea recta</title>
    <g id="Diseños" stroke="none" stroke-width="1" fill="none" fill-rule="evenodd">
        <g id="Diseñar-Jugada" transform="translate(-152.000000, -706.000000)" fill="#FFFFFF" fill-rule="nonzero">
            <g id="linea-recta" transform="translate(152.000000, 706.000000)">
                <g id="Group" transform="translate(24.096566, 23.367885) rotate(-140.470811) translate(-24.096566, -23.367885) translate(6.096566, 8.367885)">
                    <path d="M3.50536958,28.9161407 C13.4956729,19.7106828 24.3111402,11.3262409 35.0536958,3.01879106 C34.13599,2.90120309 33.2189853,2.7829152 32.3012796,2.6646273 C32.8291882,3.90420045 36.8820965,3.98819185 35.3278157,0.898708027 C34.771163,-0.207878726 33.4251011,-0.113388396 32.5753995,0.544544272 C21.8328439,8.85129416 11.0166755,17.236436 1.02707329,26.441894 C-0.637276189,27.975437 1.84732977,30.4440844 3.50536958,28.9161407" id="Path"></path>
                </g>
                <g id="Group" transform="translate(37.693163, 21.967974) rotate(-129.059385) translate(-37.693163, -21.967974) translate(28.193163, 13.467974)">
                    <path d="M2.10322193,1.55034148 C2.02820702,6.17476863 1.18411395,10.6781082 0.280429591,15.1996458 C0.0883353212,16.1613475 0.87774462,17.0915524 1.89780726,16.8143807 C6.85860672,15.4663186 11.7997761,14.1672514 16.9715989,14.0615622 C18.6646925,14.0272657 18.6674968,11.4025341 16.9715989,11.4368306 C11.5656174,11.5474193 6.38818609,12.8730837 1.19813543,14.2834395 L2.81551309,15.8981744 C3.76476726,11.1470602 4.65372906,6.4078448 4.73224935,1.55034148 C4.75959124,-0.1427854 2.13056382,-0.140685615 2.10322193,1.55034148" id="Path"></path>
                </g>
            </g>
        </g>
    </g>
</svg>