<?xml version="1.0" encoding="UTF-8"?>
<svg width="24px" height="32px" viewBox="0 0 24 32" version="1.1" xmlns="http://www.w3.org/2000/svg" xmlns:xlink="http://www.w3.org/1999/xlink">
    <title>caja-de-lapices</title>
    <g id="Diseños" stroke="none" stroke-width="1" fill="none" fill-rule="evenodd">
        <g id="Diseñar-Jugada" transform="translate(-25.000000, -719.000000)" fill="#FFFFFF" fill-rule="nonzero">
            <g id="caja-de-lapices" transform="translate(25.000000, 719.000000)">
                <path d="M21.3623079,13.2365862 L24,4.67293798 L22.4649166,0.844594115 L19.0344452,3.16955181 L16.0208588,12.9560997 L15.6631705,12.9560997 L15.6631705,6.83057654 L16.2206889,4.06559548 L13.0674504,0.313885502 L9.91421187,4.06559548 L10.4717303,6.83057654 L10.4717303,12.9559916 L9.66608675,12.9559916 L7.1354504,0 L0,1.37011454 L2.27117335,12.9971728 C1.32380637,13.1881631 0.608429822,14.0198948 0.608429822,15.0148384 C0.608429822,15.9711947 1.27289493,16.7705003 2.1658619,17.00051 L2.1658619,29.9612575 C2.1658619,31.0853653 3.08837277,32 4.22216065,32 L18.797876,32 C19.9322089,32 20.8547198,31.0853653 20.8547198,29.9612575 L20.8547198,17.00051 C21.7475778,16.7703922 22.4121519,15.9710866 22.4121519,15.0148384 C22.4120429,14.2515259 21.9863273,13.591761 21.3623079,13.2365862 Z M20.3630483,12.9560997 C20.3536728,12.9560997 20.3444062,12.9560997 20.3355758,12.9560997 L19.2775555,12.9560997 L21.8088459,4.73627714 L22.8018915,5.0368679 L20.3630483,12.9560997 Z M21.9795682,2.42061495 L22.5688108,3.89006171 L20.663066,3.31309174 L21.9795682,2.42061495 Z M19.8230818,4.13509561 L20.8162364,4.43568637 L18.1920626,12.9560997 L17.1065697,12.9560997 L19.8230818,4.13509561 Z M13.0675594,1.92190017 L15.1056521,4.34662244 L14.71842,6.26495573 L13.5867034,6.26495573 L13.5867034,4.72082065 L12.5484154,4.72082065 L12.5484154,6.26495573 L11.4166988,6.26495573 L11.0294667,4.34662244 L13.0675594,1.92190017 Z M11.5102363,8.32380251 L11.5102363,7.29437912 L14.6249915,7.29437912 L14.6249915,8.32380251 L11.5102363,8.32380251 Z M14.6249915,9.35311781 L14.6249915,12.9559916 L11.5102363,12.9559916 L11.5102363,9.35311781 L14.6249915,9.35311781 Z M2.20303706,7.23774138 L2.00571436,6.22734136 L4.55412066,5.737814 L4.35679796,4.72698163 L1.80839167,5.21650898 L1.61106897,4.20610896 L3.14026537,3.91276004 L2.94294267,2.90192767 L1.41407332,3.19527659 L1.21675063,2.18487656 L6.31367223,1.20647038 L8.60828446,12.9560997 L3.32036321,12.9560997 L3.19063171,12.2911466 L4.71939204,11.9976896 L4.52206934,10.9868573 L2.99265491,11.2802062 L2.79533221,10.2698062 L5.3437385,9.7802788 L5.1464158,8.76944642 L2.59800951,9.25897378 L2.40068681,8.24857375 L3.9297742,7.95522484 L3.7324515,6.94439246 L2.20303706,7.23774138 Z M19.8163227,29.9612575 C19.8163227,30.5176909 19.359537,30.9705766 18.798312,30.9705766 L4.22205163,30.9705766 C3.66082663,30.9705766 3.20404094,30.5176909 3.20404094,29.9612575 L3.20404094,17.0736851 L19.8163227,17.0736851 L19.8163227,29.9612575 Z M20.3354668,16.0442617 L2.68489691,16.0442617 C2.11233403,16.0442617 1.64660886,15.5826209 1.64660886,15.0148384 C1.64660886,14.4471639 2.11222501,13.985415 2.68489691,13.985415 L9.86711606,13.985415 L10.4719483,13.985415 L15.6632795,13.985415 L20.3354668,13.985415 C20.4117794,13.985415 20.4953963,13.9977369 20.5976552,14.0245426 L20.6381009,14.0353513 C21.0621812,14.1645156 21.3737548,14.5521167 21.3737548,15.0148384 C21.3737548,15.5826209 20.9080296,16.0442617 20.3354668,16.0442617 Z" id="Shape"></path>
                <path d="M19,20 L4,20 L4,27 L19,27 L19,20 Z M17.9286598,25.9230595 L5.07145268,25.9230595 L5.07145268,21.0769405 L17.9286598,21.0769405 L17.9286598,25.9230595 Z" id="Shape"></path>
            </g>
        </g>
    </g>
</svg>