<?xml version="1.0" encoding="UTF-8"?>
<svg width="61px" height="60px" viewBox="0 0 61 60" version="1.1" xmlns="http://www.w3.org/2000/svg" xmlns:xlink="http://www.w3.org/1999/xlink">
    <title>linea zigzag</title>
    <g id="Diseños" stroke="none" stroke-width="1" fill="none" fill-rule="evenodd">
        <g id="Diseñar-Jugada" transform="translate(-541.000000, -701.000000)" fill="#FFFFFF" fill-rule="nonzero">
            <g id="linea-zigzag" transform="translate(541.000000, 701.000000)">
                <g id="Group" transform="translate(30.636300, 29.727383) rotate(-140.470811) translate(-30.636300, -29.727383) translate(7.636300, 10.727383)">
                    <path d="M4.46762789,36.9142222 C6.12065021,35.3880805 10.8089789,34.6142874 13.2054145,32.2062359 C16.4104908,28.9850762 17.5649258,24.0251158 21.5384341,21.817214 C26.8281055,18.8784084 32.9621586,19.6933037 36.0903916,17.1726681 C42.3861729,12.1001234 38.3063351,8.78782406 44.6762789,3.85377582 C43.5066539,3.70366352 42.3379225,3.5526577 41.1682975,3.40165188 C41.8411223,4.98408568 47.0065936,5.09130875 45.0256474,1.14728684 C44.3161881,-0.265377097 42.600619,-0.144751144 41.517666,0.6951629 C35.1620186,5.61759531 39.7618882,8.94865867 33.4804034,14.0095875 C30.7622986,16.1996187 24.7122369,15.8359538 20.1087931,18.3610571 C15.703712,20.7780438 14.3812942,26.1311555 10.848294,29.3496347 C8.22847705,31.737135 3.12465895,32.0802488 1.30901497,33.7556093 C-0.812214751,35.7133238 2.3544399,38.8647886 4.46762789,36.9142222" id="Path"></path>
                </g>
            </g>
        </g>
    </g>
</svg>