<?xml version="1.0" encoding="UTF-8"?>
<svg width="30px" height="32px" viewBox="0 0 30 32" version="1.1" xmlns="http://www.w3.org/2000/svg" xmlns:xlink="http://www.w3.org/1999/xlink">
    <title>borrador</title>
    <g id="Diseños" stroke="none" stroke-width="1" fill="none" fill-rule="evenodd">
        <g id="Diseñar-Jugada" transform="translate(-736.000000, -771.000000)" fill="#FFFFFF" fill-rule="nonzero">
            <g id="borrador" transform="translate(736.000000, 771.000000)">
                <path d="M2.34528025,26 L0.654667933,26 C0.293082304,26 0,26.44776 0,27 C0,27.55224 0.293082304,28 0.654667933,28 L2.34533207,28 C2.7069177,28 3,27.55224 3,27 C2.99994818,26.4478392 2.70681406,26 2.34528025,26 Z" id="Path"></path>
                <path d="M6.77032342,29.2296139 C6.46410867,28.9235241 5.96767337,28.9234 5.66145862,29.2296139 L4.22968434,30.6613845 C3.92346959,30.9675985 3.92340752,31.4640325 4.22968434,31.7703085 C4.38279171,31.9233534 4.58343871,32 4.78408571,32 C4.98473271,32 5.18544177,31.9234155 5.33848708,31.7703085 L6.77026136,30.3385379 C7.07653817,30.032324 7.07660023,29.5358899 6.77032342,29.2296139 Z" id="Path"></path>
                <path d="M29.2179713,26.4285177 L15.5084189,26.4285177 L29.541913,12.3307626 C30.1517258,11.7180655 30.1517877,10.72122 29.5419749,10.1085229 L19.9380579,0.459476193 C19.3281213,-0.153158731 18.3358678,-0.153158731 17.7259312,0.459476193 L2.3744466,15.8820053 C1.48811023,16.7724436 1,17.9562948 1,19.2155204 C1,20.4746839 1.48811023,21.6585973 2.3744466,22.5490355 L6.9987107,27.1945757 C7.51566803,27.7139254 8.20304609,28 8.93419002,28 L29.2179094,28 C29.649873,28 30,27.6481905 30,27.21429 C30,26.7803895 29.6499349,26.4285177 29.2179713,26.4285177 Z M8.93425193,26.4285177 C8.62089568,26.4285177 8.32635814,26.3058788 8.1046812,26.0833003 L3.48054091,21.4377602 C2.26079151,20.212366 2.26079151,18.2184883 3.48054091,16.9931563 L5.99116699,14.4709114 L14.2450893,22.7630939 C14.3978056,22.9164548 14.5979401,22.9931974 14.7980746,22.9931974 C14.9982091,22.9931974 15.1984054,22.9164548 15.3510598,22.7630939 C15.6564924,22.4562479 15.6565543,21.958789 15.3511217,21.6518808 L7.0972613,13.3597604 L18.8320255,1.57056497 L28.4358806,11.2196738 L13.2962922,26.4285177 L8.93425193,26.4285177 Z" id="Shape"></path>
            </g>
        </g>
    </g>
</svg>