<?xml version="1.0" encoding="UTF-8"?>
<svg width="18px" height="47px" viewBox="0 0 18 47" version="1.1" xmlns="http://www.w3.org/2000/svg" xmlns:xlink="http://www.w3.org/1999/xlink">
    <title>Group 3</title>
    <g id="Diseños" stroke="none" stroke-width="1" fill="none" fill-rule="evenodd">
        <g id="Home" transform="translate(-991.000000, -631.000000)" fill="#FFFFFF" fill-rule="nonzero">
            <g id="Group-3" transform="translate(991.000000, 631.000000)">
                <path d="M16.5,37.7 L15,37.7 L15,17.55 C15,16.6938671 14.3285157,16 13.5,16 L1.5,16 C0.6714843,16 0,16.6938671 0,17.55 L0,23.75 C0,24.6061329 0.6714843,25.3 1.5,25.3 L3,25.3 L3,37.7 L1.5,37.7 C0.6714843,37.7 0,38.3938671 0,39.25 L0,45.45 C0,46.3061329 0.6714843,47 1.5,47 L16.5,47 C17.3285157,47 18,46.3061329 18,45.45 L18,39.25 C18,38.3938671 17.3285157,37.7 16.5,37.7 Z M15,43.9 L3,43.9 L3,40.8 L4.5,40.8 C5.3285157,40.8 6,40.1061329 6,39.25 L6,23.75 C6,22.8938671 5.3285157,22.2 4.5,22.2 L3,22.2 L3,19.1 L12,19.1 L12,39.25 C12,40.1061329 12.6720704,40.8 13.5,40.8 L15,40.8 L15,43.9 Z" id="Shape"></path>
                <path d="M10,12 C13.3082032,12 16,9.3082032 16,6 C16,2.6917968 13.3082032,0 10,0 C6.6917968,0 4,2.6917968 4,6 C4,9.3082032 6.6917968,12 10,12 Z M10,3 C11.6541016,3 13,4.3458984 13,6 C13,7.6541016 11.6541016,9 10,9 C8.3458984,9 7,7.6541016 7,6 C7,4.3458984 8.3458984,3 10,3 Z" id="Shape"></path>
            </g>
        </g>
    </g>
</svg>