<?xml version="1.0" encoding="UTF-8"?>
<svg width="66px" height="64px" viewBox="0 0 66 64" version="1.1" xmlns="http://www.w3.org/2000/svg" xmlns:xlink="http://www.w3.org/1999/xlink">
    <title>estrategia</title>
    <g id="Diseños" stroke="none" stroke-width="1" fill="none" fill-rule="evenodd">
        <g id="Home" transform="translate(-77.000000, -730.000000)" fill="#FFFFFF" fill-rule="nonzero">
            <g id="estrategia" transform="translate(77.000000, 730.000000)">
                <g id="Group" transform="translate(3.000000, 3.000000)">
                    <path d="M1,43.9916439 C0.447,43.9916439 0,43.5247478 0,42.9471335 L0,3.25573887 C0,2.67812463 0.447,2.21122849 1,2.21122849 C1.553,2.21122849 2,2.67812463 2,3.25573887 L2,42.9471335 C2,43.5247478 1.553,43.9916439 1,43.9916439 Z" id="Path"></path>
                    <path d="M1,4.30024926 C0.447,4.30024926 0,3.83335312 0,3.25573887 C0,1.52811869 1.346,0.122207715 3,0.122207715 C3.553,0.122207715 4,0.589103858 4,1.1667181 C4,1.74433234 3.553,2.21122849 3,2.21122849 C2.448,2.21122849 2,2.67916914 2,3.25573887 C2,3.83335312 1.553,4.30024926 1,4.30024926 Z" id="Path"></path>
                </g>
                <g id="Group" transform="translate(56.000000, 3.000000)">
                    <path d="M2.5220202,38.9380065 C2.07515152,38.9380065 1.71393939,38.4837264 1.71393939,37.9217199 L1.71393939,3.16776547 C1.71393939,2.60575896 2.07515152,2.15147883 2.5220202,2.15147883 C2.96888889,2.15147883 3.33010101,2.60575896 3.33010101,3.16776547 L3.33010101,37.9217199 C3.33010101,38.4837264 2.96888889,38.9380065 2.5220202,38.9380065 Z" id="Path"></path>
                    <path d="M2.5220202,4.18405212 C2.07515152,4.18405212 1.71393939,3.72977199 1.71393939,3.16776547 C1.71393939,2.60677524 1.35191919,2.15147883 0.905858586,2.15147883 C0.458989899,2.15147883 0.0977777778,1.6971987 0.0977777778,1.13519218 C0.0977777778,0.573185668 0.458989899,0.118905537 0.905858586,0.118905537 C2.24242424,0.118905537 3.33010101,1.48682736 3.33010101,3.16776547 C3.33010101,3.72977199 2.96888889,4.18405212 2.5220202,4.18405212 Z" id="Path"></path>
                </g>
                <path d="M56.9614586,6 L5.03854143,6 C4.46422802,6 4,5.3295 4,4.5 C4,3.6705 4.46422802,3 5.03854143,3 L56.9614586,3 C57.535772,3 58,3.6705 58,4.5 C58,5.3295 57.535772,6 56.9614586,6 Z" id="Path"></path>
                <path d="M42.56904,50 L1.02789008,50 C0.459466868,50 0,49.553 0,49 L0,46 C0,45.447 0.459466868,45 1.02789008,45 L43.9721099,45 C44.541561,45 45,45.447 45,46 C45,46.553 44.541561,47 43.9721099,47 L2.05578017,47 L2.05578017,48 L42.56904,48 C43.1374632,48 43.59693,48.447 43.59693,49 C43.59693,49.553 43.1374632,50 42.56904,50 Z" id="Path"></path>
                <g id="Group" transform="translate(14.000000, 48.000000)">
                    <g id="Path">
                        <path d="M6.25399586,15.992062 C6.14062112,15.992062 6.0231608,15.9722171 5.91080745,15.9335194 C5.37866115,15.747969 5.10186335,15.1804031 5.29286404,14.6664186 L10.3998344,0.774945736 C10.5887923,0.258976744 11.1740511,-0.0138914729 11.7041546,0.174635659 C12.2363009,0.359193798 12.5130987,0.92675969 12.322098,1.44173643 L7.21512767,15.3332093 C7.06702553,15.7380465 6.67378882,15.992062 6.25399586,15.992062 L6.25399586,15.992062 Z"></path>
                        <path d="M1.14702553,15.992062 C1.03365079,15.992062 0.916190476,15.9722171 0.803837129,15.9335194 C0.271690821,15.747969 -0.00510697032,15.1804031 0.18589372,14.6664186 L5.29286404,0.774945736 C5.48182195,0.258976744 6.06708075,-0.0138914729 6.59718427,0.174635659 C7.12933057,0.359193798 7.40612836,0.92675969 7.21512767,1.44173643 L2.10815735,15.3332093 C1.96005521,15.7380465 1.5668185,15.992062 1.14702553,15.992062 L1.14702553,15.992062 Z"></path>
                        <path d="M6.25399586,15.992062 L1.14702553,15.992062 C0.582194617,15.992062 0.12563147,15.5485271 0.12563147,14.999814 C0.12563147,14.4511008 0.582194617,14.0075659 1.14702553,14.0075659 L6.25399586,14.0075659 C6.81882678,14.0075659 7.27538992,14.4511008 7.27538992,14.999814 C7.27538992,15.5485271 6.81882678,15.992062 6.25399586,15.992062 Z"></path>
                    </g>
                    <g transform="translate(22.470669, 0.000000)" id="Path">
                        <path d="M6.25399586,15.992062 C5.8342029,15.992062 5.44096618,15.7380465 5.29286404,15.3332093 L0.18589372,1.44173643 C-0.00510697032,0.925767442 0.273733609,0.35820155 0.803837129,0.174635659 C1.33291925,-0.0119069767 1.92022084,0.259968992 2.10815735,0.774945736 L7.21512767,14.6664186 C7.40612836,15.1823876 7.12728778,15.7499535 6.59718427,15.9335194 C6.48585231,15.9751938 6.3673706,15.992062 6.25399586,15.992062 L6.25399586,15.992062 Z"></path>
                        <path d="M11.3609662,15.992062 C10.9411732,15.992062 10.5479365,15.7380465 10.3998344,15.3332093 L9.52449965,12.9498295 C9.33349896,12.4338605 9.61131815,11.8662946 10.1414217,11.6827287 C10.673568,11.496186 11.2588268,11.768062 11.4457419,12.2830388 L12.3210766,14.6664186 C12.5120773,15.1823876 12.2332367,15.7499535 11.7031332,15.9335194 C11.5907798,15.9751938 11.4743409,15.992062 11.3609662,15.992062 L11.3609662,15.992062 Z"></path>
                        <path d="M11.3609662,15.992062 L6.25399586,15.992062 C5.68916494,15.992062 5.23260179,15.5485271 5.23260179,14.999814 C5.23260179,14.4511008 5.68916494,14.0075659 6.25399586,14.0075659 L11.3609662,14.0075659 C11.9257971,14.0075659 12.3823602,14.4511008 12.3823602,14.999814 C12.3823602,15.5485271 11.9257971,15.992062 11.3609662,15.992062 Z"></path>
                    </g>
                </g>
                <path d="M35,5 L27,5 C26.447,5 26,4.553 26,4 L26,1 C26,0.447 26.447,0 27,0 L35,0 C35.553,0 36,0.447 36,1 L36,4 C36,4.553 35.553,5 35,5 Z M28,3 L34,3 L34,2 L28,2 L28,3 Z" id="Shape"></path>
                <path d="M11,39 C8.794,39 7,37.205 7,35 C7,32.794 8.794,31 11,31 C13.206,31 15,32.794 15,35 C15,37.205 13.206,39 11,39 Z M11,33 C9.897,33 9,33.896 9,35 C9,36.104 9.897,37 11,37 C12.103,37 13,36.104 13,35 C13,33.896 12.103,33 11,33 Z" id="Shape"></path>
                <path d="M47,24 C44.794,24 43,22.206 43,20 C43,17.794 44.794,16 47,16 C49.206,16 51,17.794 51,20 C51,22.206 49.206,24 47,24 Z M47,18 C45.896,18 45,18.897 45,20 C45,21.103 45.896,22 47,22 C48.104,22 49,21.103 49,20 C49,18.897 48.104,18 47,18 Z" id="Shape"></path>
                <path d="M48.5,22 C47.6705,22 47,21.553 47,21 L47,12 C47,11.447 47.6705,11 48.5,11 C49.3295,11 50,11.447 50,12 L50,21 C50,21.553 49.3295,22 48.5,22 Z" id="Path"></path>
                <path d="M54,12 L48,12 C47.447,12 47,11.3295 47,10.5 C47,9.6705 47.447,9 48,9 L54,9 C54.553,9 55,9.6705 55,10.5 C55,11.3295 54.553,12 54,12 Z" id="Path"></path>
                <path d="M54,16 L48,16 C47.447,16 47,15.3295 47,14.5 C47,13.6705 47.447,13 48,13 L54,13 C54.553,13 55,13.6705 55,14.5 C55,15.3295 54.553,16 54,16 Z" id="Path"></path>
                <path d="M54.0018959,16 C53.6350066,16 53.2821131,15.764332 53.1061662,15.3548297 L52.1064679,13.0214834 C51.9645107,12.6936483 51.9645107,12.3063128 52.1064679,11.977311 L53.1061662,9.64396464 C53.3540914,9.0676281 53.9539103,8.83662681 54.4477613,9.12246174 C54.9416123,9.41063001 55.1405522,10.1118006 54.8946265,10.6881371 L54.1188606,12.4999805 L54.8946265,14.3118239 C55.1405522,14.8881605 54.9416123,15.589331 54.4477613,15.8774993 C54.3048045,15.9603331 54.1508509,16 54.0018959,16 Z" id="Path"></path>
                <path d="M16.0397296,30 C15.794287,30 15.5467643,29.917 15.3491621,29.747 C14.9196375,29.381 14.8811571,28.748 15.2628412,28.336 C15.615405,27.954 24.0758967,19 39.9599887,19 C40.535115,19 41,19.447 41,20 C41,20.553 40.535115,21 39.9599887,21 C24.9994267,21 16.8966989,29.578 16.816618,29.664 C16.6117358,29.887 16.3257327,30 16.0397296,30 L16.0397296,30 Z" id="Path"></path>
                <path d="M38.000125,23 C37.744157,23 37.488189,22.9020061 37.2932133,22.7070183 C36.9022622,22.3160427 36.9022622,21.6850822 37.2932133,21.2931067 L39.2929634,19.2932317 C39.6839145,18.9022561 40.3158355,18.9022561 40.7067867,19.2932317 C41.0977378,19.6842072 41.0977378,20.3161677 40.7067867,20.7071433 L38.7070366,22.7070183 C38.512061,22.9030061 38.256093,23 38.000125,23 Z" id="Path"></path>
                <path d="M39.999875,22 C39.743907,22 39.487939,21.9020153 39.2929634,21.7070458 L37.2932133,19.7073583 C36.9022622,19.3164194 36.9022622,18.685518 37.2932133,18.2935792 C37.6841645,17.9016405 38.3160855,17.9026403 38.7070366,18.2935792 L40.7067867,20.2932667 C41.0977378,20.6842056 41.0977378,21.3161069 40.7067867,21.7070458 C40.511811,21.9030152 40.255843,22 39.999875,22 Z" id="Path"></path>
                <path d="M11.5037406,37 C10.6763092,37 10,36.3295 10,35.5 C10,34.6705 10.6613466,34 11.4872818,34 L11.5037406,34 C12.3296758,34 13,34.6705 13,35.5 C13,36.3295 12.3296758,37 11.5037406,37 L11.5037406,37 Z" id="Path"></path>
                <path d="M13.8331389,22 C13.5344971,22 13.2358553,21.8856786 13.0083743,21.6582023 L8.34209649,16.9920218 C7.88596784,16.5359026 7.88596784,15.7998126 8.34209649,15.342527 C8.79822515,14.8852413 9.53549704,14.8864078 9.9916257,15.342527 L14.6579035,20.0087075 C15.1140322,20.4648266 15.1140322,21.2020831 14.6579035,21.6582023 C14.4304225,21.8868451 14.1317807,22 13.8331389,22 L13.8331389,22 Z" id="Path"></path>
                <path d="M9.16686109,22 C8.86821932,22 8.56957754,21.8856714 8.34209649,21.6581809 C7.88596784,21.2020332 7.88596784,20.4658973 8.34209649,20.008583 L13.0083743,15.3421107 C13.464503,14.8859631 14.2017749,14.8859631 14.6579035,15.3421107 C15.1140322,15.7982584 15.1140322,16.535561 14.6579035,16.9917087 L9.9916257,21.6581809 C9.76414465,21.886838 9.46550287,22 9.16686109,22 L9.16686109,22 Z" id="Path"></path>
                <path d="M28.8331389,15 C28.5344971,15 28.2358553,14.8856786 28.0083743,14.6582023 L23.3420965,9.99202176 C22.8859678,9.53590262 22.8859678,8.79981264 23.3420965,8.34252695 C23.7982251,7.88524126 24.535497,7.88640781 24.9916257,8.34252695 L29.6579035,13.0087075 C30.1140322,13.4648266 30.1140322,14.2020831 29.6579035,14.6582023 C29.4304225,14.8868451 29.1317807,15 28.8331389,15 Z" id="Path"></path>
                <path d="M24.1668611,15 C23.8682193,15 23.5695775,14.8856714 23.3420965,14.6581809 C22.8859678,14.2020332 22.8859678,13.4658973 23.3420965,13.008583 L28.0083743,8.34211075 C28.464503,7.88596308 29.2017749,7.88596308 29.6579035,8.34211075 C30.1140322,8.79825841 30.1140322,9.53556102 29.6579035,9.99170868 L24.9916257,14.6581809 C24.7641447,14.886838 24.4655029,15 24.1668611,15 Z" id="Path"></path>
                <path d="M31.8331389,42 C31.5344971,42 31.2358553,41.8856714 31.0083743,41.6581809 L26.3420965,36.9917087 C25.8859678,36.535561 25.8859678,35.7982584 26.3420965,35.3421107 C26.7982251,34.8859631 27.535497,34.8859631 27.9916257,35.3421107 L32.6579035,40.008583 C33.1140322,40.4647306 33.1140322,41.2020332 32.6579035,41.6581809 C32.4304225,41.886838 32.1317807,42 31.8331389,42 Z" id="Path"></path>
                <path d="M27.1668611,42 C26.8682193,42 26.5695775,41.8856714 26.3420965,41.6581809 C25.8859678,41.2020332 25.8859678,40.4647306 26.3420965,40.008583 L31.0083743,35.3421107 C31.464503,34.8859631 32.2017749,34.8859631 32.6579035,35.3421107 C33.1140322,35.7982584 33.1140322,36.535561 32.6579035,36.9917087 L27.9916257,41.6581809 C27.7641447,41.886838 27.4655029,42 27.1668611,42 Z" id="Path"></path>
                <path d="M46.8331389,37 C46.5344971,37 46.2358553,36.8856786 46.0083743,36.6582023 L41.3420965,31.9920218 C40.8859678,31.5359026 40.8859678,30.7998126 41.3420965,30.342527 C41.7982251,29.8852413 42.535497,29.8864078 42.9916257,30.342527 L47.6579035,35.0087075 C48.1140322,35.4648266 48.1140322,36.2020831 47.6579035,36.6582023 C47.4304225,36.8868451 47.1317807,37 46.8331389,37 Z" id="Path"></path>
                <path d="M42.1668611,37 C41.8682193,37 41.5695775,36.8856714 41.3420965,36.6581809 C40.8859678,36.2020332 40.8859678,35.4647306 41.3420965,35.008583 L46.0083743,30.3421107 C46.464503,29.8859631 47.2017749,29.8859631 47.6579035,30.3421107 C48.1140322,30.7982584 48.1140322,31.535561 47.6579035,31.9917087 L42.9916257,36.6581809 C42.7641447,36.886838 42.4655029,37 42.1668611,37 Z" id="Path"></path>
                <g id="Group" transform="translate(41.000000, 39.000000)">
                    <path d="M12.5,24.8787565 C5.60729167,24.8787565 0,19.3005181 0,12.4435233 C0,5.5865285 5.60729167,0.00829015544 12.5,0.00829015544 C19.3927083,0.00829015544 25,5.5865285 25,12.4435233 C25,19.3005181 19.3927083,24.8787565 12.5,24.8787565 Z M12.5,2.08082902 C6.75625,2.08082902 2.08333333,6.72953368 2.08333333,12.4435233 C2.08333333,18.157513 6.75625,22.8062176 12.5,22.8062176 C18.24375,22.8062176 22.9166667,18.157513 22.9166667,12.4435233 C22.9166667,6.72953368 18.24375,2.08082902 12.5,2.08082902 Z" id="Shape"></path>
                    <path d="M22.2010417,7.43005181 C22.1520833,7.43005181 22.1,7.42694301 22.0489583,7.41865285 L17.240625,6.71502591 C16.903125,6.66632124 16.6104167,6.45388601 16.4583333,6.14818653 L14.325,1.84352332 C14.0697917,1.33056995 14.2822917,0.70984456 14.7979167,0.456994819 C15.3145833,0.202072539 15.9385417,0.414507772 16.1927083,0.92642487 L18.084375,4.74507772 L22.3520833,5.36994819 C22.9208333,5.45284974 23.3145833,5.97927461 23.23125,6.54611399 C23.1552083,7.06010363 22.7104167,7.43005181 22.2010417,7.43005181 L22.2010417,7.43005181 Z" id="Path"></path>
                    <path d="M21.2458333,20.8362694 C20.746875,20.8362694 20.3072917,20.4797927 20.2208333,19.9740933 L19.384375,15.1202073 C19.325,14.784456 19.4385417,14.4404145 19.6833333,14.2020725 L23.184375,10.8124352 C23.596875,10.411399 24.25625,10.4238342 24.6572917,10.8331606 C25.0583333,11.2435233 25.0489583,11.8974093 24.6364583,12.2984456 L21.528125,15.307772 L22.271875,19.6227979 C22.3708333,20.1875648 21.9885417,20.7243523 21.4229167,20.8186528 C21.3625,20.8331606 21.303125,20.8362694 21.2458333,20.8362694 L21.2458333,20.8362694 Z" id="Path"></path>
                    <path d="M8.10104167,24 C7.72708333,24 7.36458333,23.7989637 7.17708333,23.4445596 C6.909375,22.9378238 7.10833333,22.3119171 7.61666667,22.0445596 L12.0166667,19.7512953 C12.3197917,19.5948187 12.6802083,19.5948187 12.9833333,19.7512953 L17.3833333,22.0445596 C17.8927083,22.3098446 18.0916667,22.9357513 17.8229167,23.4445596 C17.55625,23.9492228 16.9260417,24.1502591 16.4166667,23.8818653 L12.5,21.8404145 L8.584375,23.8818653 C8.43125,23.9626943 8.26666667,24 8.10104167,24 L8.10104167,24 Z" id="Path"></path>
                    <path d="M3.75416667,20.8362694 C3.69583333,20.8362694 3.6375,20.8300518 3.57708333,20.8196891 C3.009375,20.7233161 2.62916667,20.188601 2.728125,19.6238342 L3.47291667,15.3088083 L0.361458333,12.2994819 C-0.0510416667,11.9005181 -0.059375,11.2445596 0.340625,10.8341969 C0.742708333,10.4248705 1.403125,10.4145078 1.81354167,10.8134715 L5.31666667,14.2031088 C5.5625,14.4404145 5.67604167,14.7854922 5.61770833,15.1212435 L4.77916667,19.9751295 C4.69375,20.480829 4.253125,20.8362694 3.75416667,20.8362694 Z" id="Path"></path>
                    <path d="M2.8,7.43005181 C2.29270833,7.43005181 1.84791667,7.06010363 1.771875,6.54507772 C1.68854167,5.97823834 2.08229167,5.45181347 2.65104167,5.36891192 L6.91875,4.74404145 L8.80833333,0.925388601 C9.06458333,0.413471503 9.6875,0.206217617 10.2041667,0.45388601 C10.7197917,0.706735751 10.9322917,1.32953368 10.678125,1.84248705 L8.54583333,6.14715026 C8.39375,6.45284974 8.1,6.66528497 7.7625,6.71398964 L2.95416667,7.41761658 C2.9,7.42694301 2.84791667,7.43005181 2.8,7.43005181 Z" id="Path"></path>
                    <path d="M15.2083333,16.5720207 L9.79166667,16.5720207 C9.33854167,16.5720207 8.940625,16.2829016 8.80104167,15.8580311 L7.128125,10.7378238 C6.98854167,10.3108808 7.14166667,9.84352332 7.50625,9.57927461 L11.8875,6.40829016 C12.2520833,6.14300518 12.7479167,6.14300518 13.1125,6.40829016 L17.49375,9.57927461 C17.859375,9.84352332 18.0114583,10.3108808 17.871875,10.7378238 L16.1989583,15.8580311 C16.059375,16.2829016 15.659375,16.5720207 15.2083333,16.5720207 Z M10.5489583,14.4994819 L14.4510417,14.4994819 L15.6552083,10.8093264 L12.5,8.52746114 L9.34479167,10.8124352 L10.5489583,14.4994819 Z" id="Shape"></path>
                </g>
            </g>
        </g>
    </g>
</svg>