<?xml version="1.0" encoding="UTF-8"?>
<svg width="30px" height="29px" viewBox="0 0 30 29" version="1.1" xmlns="http://www.w3.org/2000/svg" xmlns:xlink="http://www.w3.org/1999/xlink">
    <title>borrador</title>
    <g id="Diseños" stroke="none" stroke-width="1" fill="none" fill-rule="evenodd">
        <g id="Diseñar-Jugada" transform="translate(-740.000000, -714.000000)" fill="#FFFFFF" fill-rule="nonzero">
            <g id="borrador" transform="translate(740.000000, 714.000000)">
                <path d="M29.1910048,27.3723934 L15.0087092,27.3723934 L29.5261169,12.771147 C30.1569578,12.1365678 30.1570218,11.1041207 29.526181,10.4695416 L19.5910944,0.475886057 C18.9601255,-0.158628686 17.9336564,-0.158628686 17.3026875,0.475886057 L1.42184131,16.4492198 C0.504941618,17.3714594 0,18.597591 0,19.901789 C0,21.2059226 0.504941618,22.4321186 1.42184131,23.3543582 L6.20556279,28.1658105 C6.74034623,28.7037085 7.45142699,29 8.20778278,29 L29.1909407,29 C29.6377996,29 30,28.6356258 30,28.1862289 C30,27.7368319 29.6378637,27.3723934 29.1910048,27.3723934 Z M8.20784682,27.3723934 C7.88368519,27.3723934 7.57899118,27.2453745 7.3496702,27.0148468 L2.5660768,22.2033945 C1.30426708,20.9342362 1.30426708,18.8691486 2.5660768,17.6000547 L5.1632762,14.9877297 L13.7018166,23.5760616 C13.8597989,23.7348996 14.0668346,23.814383 14.2738703,23.814383 C14.4809059,23.814383 14.6880056,23.7348996 14.845924,23.5760616 C15.1618887,23.2582567 15.1619527,22.7430315 14.845988,22.4251622 L6.30751169,13.8368947 L18.446923,1.62665658 L28.3819455,11.6203765 L12.7203023,27.3723934 L8.20784682,27.3723934 Z" id="Shape"></path>
            </g>
        </g>
    </g>
</svg>