<?xml version="1.0" encoding="UTF-8"?>
<svg width="64px" height="62px" viewBox="0 0 64 62" version="1.1" xmlns="http://www.w3.org/2000/svg" xmlns:xlink="http://www.w3.org/1999/xlink">
    <title>Group 2</title>
    <g id="Diseños" stroke="none" stroke-width="1" fill="none" fill-rule="evenodd">
        <g id="Animacion" transform="translate(-796.000000, -736.000000)">
            <g id="Group-2" transform="translate(796.000000, 736.000000)">
                <g id="next" transform="translate(17.000000, 14.000000)" fill="#FFFFFF" fill-rule="nonzero">
                    <path d="M22.2260577,13.0132348 L4.50187232,0.770259428 C3.77359789,0.26608962 3.01614082,0 2.36766667,0 C0.943915978,0 0,1.19921872 0,3.12901683 L0,28.8715019 C0,29.8142268 0.272973786,30.6018624 0.677656779,31.1501212 C1.08853785,31.7059009 1.73133043,32 2.42577368,32 C3.07398957,32 3.80148925,31.7333917 4.52950543,31.2299999 L22.2376791,18.9870246 C23.3760598,18.1991296 24.0002582,17.1386613 24,15.999611 C24,14.8610794 23.365988,13.8006111 22.2260577,13.0132348 Z" id="Path"></path>
                    <g id="Group" transform="translate(27.000000, 0.000000)">
                        <path d="M2.4436209,31.931897 L2.4143209,31.931497 C2.4095209,31.931497 2.4048209,31.931897 2.4000209,31.931897 L2.4436209,31.931897 Z" id="Path"></path>
                        <path d="M2.36644776,0 L1.68895522,0.00206868687 C0.801791045,0.00206868687 0.0337910448,0.785066667 0.0337910448,1.74700606 L0.0337910448,30.1505939 C0.0337910448,31.1135677 0.789134328,31.9040646 1.67749254,31.9040646 L2.39719403,31.9138909 C3.28107463,31.9087838 3.94686567,31.111499 3.94686567,30.1521455 L3.94686567,1.74519596 C3.94686567,0.783256566 3.25432836,0 2.36644776,0 Z" id="Path"></path>
                    </g>
                </g>
                <ellipse id="Oval" stroke="#FFFFFF" stroke-width="5" cx="32" cy="31" rx="29.5" ry="28.5"></ellipse>
            </g>
        </g>
    </g>
</svg>