<?xml version="1.0" encoding="UTF-8"?>
<svg width="70px" height="46px" viewBox="0 0 70 46" version="1.1" xmlns="http://www.w3.org/2000/svg" xmlns:xlink="http://www.w3.org/1999/xlink">
    <title>Group 2</title>
    <g id="Diseños" stroke="none" stroke-width="1" fill="none" fill-rule="evenodd">
        <g id="Home" transform="translate(-605.000000, -739.000000)">
            <g id="Group-2" transform="translate(605.000000, 739.000000)">
                <g id="estrategia" transform="translate(13.000000, 5.000000)" fill="#FFFFFF" fill-rule="nonzero">
                    <path d="M4,31 C1.794,31 0,29.205 0,27 C0,24.794 1.794,23 4,23 C6.206,23 8,24.794 8,27 C8,29.205 6.206,31 4,31 Z M4,25 C2.897,25 2,25.896 2,27 C2,28.104 2.897,29 4,29 C5.103,29 6,28.104 6,27 C6,25.896 5.103,25 4,25 Z" id="Shape"></path>
                    <path d="M40,16 C37.794,16 36,14.206 36,12 C36,9.794 37.794,8 40,8 C42.206,8 44,9.794 44,12 C44,14.206 42.206,16 40,16 Z M40,10 C38.896,10 38,10.897 38,12 C38,13.103 38.896,14 40,14 C41.104,14 42,13.103 42,12 C42,10.897 41.104,10 40,10 Z" id="Shape"></path>
                    <path d="M41.5,14 C40.6705,14 40,13.553 40,13 L40,4 C40,3.447 40.6705,3 41.5,3 C42.3295,3 43,3.447 43,4 L43,13 C43,13.553 42.3295,14 41.5,14 Z" id="Path"></path>
                    <path d="M47,4 L41,4 C40.447,4 40,3.3295 40,2.5 C40,1.6705 40.447,1 41,1 L47,1 C47.553,1 48,1.6705 48,2.5 C48,3.3295 47.553,4 47,4 Z" id="Path"></path>
                    <path d="M47,8 L41,8 C40.447,8 40,7.3295 40,6.5 C40,5.6705 40.447,5 41,5 L47,5 C47.553,5 48,5.6705 48,6.5 C48,7.3295 47.553,8 47,8 Z" id="Path"></path>
                    <path d="M47.0018959,8 C46.6350066,8 46.2821131,7.76433202 46.1061662,7.35482974 L45.1064679,5.02148343 C44.9645107,4.69364827 44.9645107,4.30631278 45.1064679,3.97731095 L46.1061662,1.64396464 C46.3540914,1.0676281 46.9539103,0.836626812 47.4477613,1.12246174 C47.9416123,1.41063001 48.1405522,2.11180057 47.8946265,2.68813711 L47.1188606,4.49998053 L47.8946265,6.31182394 C48.1405522,6.88816048 47.9416123,7.58933105 47.4477613,7.87749932 C47.3048045,7.96033311 47.1508509,8 47.0018959,8 Z" id="Path"></path>
                    <path d="M9.03972961,22 C8.79428695,22 8.54676427,21.917 8.34916213,21.747 C7.91963748,21.381 7.88115706,20.748 8.26284119,20.336 C8.61540501,19.954 17.0758967,11 32.9599887,11 C33.535115,11 34,11.447 34,12 C34,12.553 33.535115,13 32.9599887,13 C17.9994267,13 9.89669889,21.578 9.81661803,21.664 C9.61173581,21.887 9.32573271,22 9.03972961,22 L9.03972961,22 Z" id="Path"></path>
                    <path d="M31.000125,15 C30.744157,15 30.488189,14.9020061 30.2932133,14.7070183 C29.9022622,14.3160427 29.9022622,13.6850822 30.2932133,13.2931067 L32.2929634,11.2932317 C32.6839145,10.9022561 33.3158355,10.9022561 33.7067867,11.2932317 C34.0977378,11.6842072 34.0977378,12.3161677 33.7067867,12.7071433 L31.7070366,14.7070183 C31.512061,14.9030061 31.256093,15 31.000125,15 Z" id="Path"></path>
                    <path d="M32.999875,14 C32.743907,14 32.487939,13.9020153 32.2929634,13.7070458 L30.2932133,11.7073583 C29.9022622,11.3164194 29.9022622,10.685518 30.2932133,10.2935792 C30.6841645,9.90164049 31.3160855,9.90264034 31.7070366,10.2935792 L33.7067867,12.2932667 C34.0977378,12.6842056 34.0977378,13.3161069 33.7067867,13.7070458 C33.511811,13.9030152 33.255843,14 32.999875,14 Z" id="Path"></path>
                    <path d="M4.50374065,29 C3.67630923,29 3,28.3295 3,27.5 C3,26.6705 3.66134663,26 4.4872818,26 L4.50374065,26 C5.32967581,26 6,26.6705 6,27.5 C6,28.3295 5.32967581,29 4.50374065,29 L4.50374065,29 Z" id="Path"></path>
                    <path d="M6.83313891,14 C6.53449713,14 6.23585535,13.8856786 6.0083743,13.6582023 L1.34209649,8.99202176 C0.885967836,8.53590262 0.885967836,7.79981264 1.34209649,7.34252695 C1.79822515,6.88524126 2.53549704,6.88640781 2.9916257,7.34252695 L7.65790351,12.0087075 C8.11403216,12.4648266 8.11403216,13.2020831 7.65790351,13.6582023 C7.43042246,13.8868451 7.13178068,14 6.83313891,14 L6.83313891,14 Z" id="Path"></path>
                    <path d="M2.16686109,14 C1.86821932,14 1.56957754,13.8856714 1.34209649,13.6581809 C0.885967836,13.2020332 0.885967836,12.4658973 1.34209649,12.008583 L6.0083743,7.34211075 C6.46450296,6.88596308 7.20177485,6.88596308 7.65790351,7.34211075 C8.11403216,7.79825841 8.11403216,8.53556102 7.65790351,8.99170868 L2.9916257,13.6581809 C2.76414465,13.886838 2.46550287,14 2.16686109,14 L2.16686109,14 Z" id="Path"></path>
                    <path d="M21.8331389,7 C21.5344971,7 21.2358553,6.88567858 21.0083743,6.65820228 L16.3420965,1.99202176 C15.8859678,1.53590262 15.8859678,0.799812643 16.3420965,0.342526953 C16.7982251,-0.114758737 17.535497,-0.113592192 17.9916257,0.342526953 L22.6579035,5.00870747 C23.1140322,5.46482661 23.1140322,6.20208313 22.6579035,6.65820228 C22.4304225,6.88684512 22.1317807,7 21.8331389,7 Z" id="Path"></path>
                    <path d="M17.1668611,7 C16.8682193,7 16.5695775,6.88567143 16.3420965,6.65818091 C15.8859678,6.20203325 15.8859678,5.46589725 16.3420965,5.00858298 L21.0083743,0.342110745 C21.464503,-0.114036915 22.2017749,-0.114036915 22.6579035,0.342110745 C23.1140322,0.798258406 23.1140322,1.53556102 22.6579035,1.99170868 L17.9916257,6.65818091 C17.7641447,6.88683805 17.4655029,7 17.1668611,7 Z" id="Path"></path>
                    <path d="M24.8331389,34 C24.5344971,34 24.2358553,33.8856714 24.0083743,33.6581809 L19.3420965,28.9917087 C18.8859678,28.535561 18.8859678,27.7982584 19.3420965,27.3421107 C19.7982251,26.8859631 20.535497,26.8859631 20.9916257,27.3421107 L25.6579035,32.008583 C26.1140322,32.4647306 26.1140322,33.2020332 25.6579035,33.6581809 C25.4304225,33.886838 25.1317807,34 24.8331389,34 Z" id="Path"></path>
                    <path d="M20.1668611,34 C19.8682193,34 19.5695775,33.8856714 19.3420965,33.6581809 C18.8859678,33.2020332 18.8859678,32.4647306 19.3420965,32.008583 L24.0083743,27.3421107 C24.464503,26.8859631 25.2017749,26.8859631 25.6579035,27.3421107 C26.1140322,27.7982584 26.1140322,28.535561 25.6579035,28.9917087 L20.9916257,33.6581809 C20.7641447,33.886838 20.4655029,34 20.1668611,34 Z" id="Path"></path>
                    <path d="M39.8331389,29 C39.5344971,29 39.2358553,28.8856786 39.0083743,28.6582023 L34.3420965,23.9920218 C33.8859678,23.5359026 33.8859678,22.7998126 34.3420965,22.342527 C34.7982251,21.8852413 35.535497,21.8864078 35.9916257,22.342527 L40.6579035,27.0087075 C41.1140322,27.4648266 41.1140322,28.2020831 40.6579035,28.6582023 C40.4304225,28.8868451 40.1317807,29 39.8331389,29 Z" id="Path"></path>
                    <path d="M35.1668611,29 C34.8682193,29 34.5695775,28.8856714 34.3420965,28.6581809 C33.8859678,28.2020332 33.8859678,27.4647306 34.3420965,27.008583 L39.0083743,22.3421107 C39.464503,21.8859631 40.2017749,21.8859631 40.6579035,22.3421107 C41.1140322,22.7982584 41.1140322,23.535561 40.6579035,23.9917087 L35.9916257,28.6581809 C35.7641447,28.886838 35.4655029,29 35.1668611,29 Z" id="Path"></path>
                </g>
                <rect id="Rectangle" stroke="#FFFFFF" stroke-width="2" x="1" y="1" width="68" height="44"></rect>
            </g>
        </g>
    </g>
</svg>