<?xml version="1.0" encoding="UTF-8"?>
<svg width="37px" height="39px" viewBox="0 0 37 39" version="1.1" xmlns="http://www.w3.org/2000/svg" xmlns:xlink="http://www.w3.org/1999/xlink">
    <title>compartir</title>
    <g id="Diseños" stroke="none" stroke-width="1" fill="none" fill-rule="evenodd">
        <g id="Home" transform="translate(-1053.000000, -637.000000)" fill="#FFFFFF" fill-rule="nonzero">
            <g id="compartir" transform="translate(1053.000000, 637.000000)">
                <path d="M30.0625,25.2890625 C27.7780583,25.2890625 25.7482229,26.3860898 24.4833625,28.0747441 L13.5938,22.5755156 C13.7764875,21.9621797 13.875,21.3135762 13.875,20.6425781 C13.875,19.7337715 13.6947021,18.8659453 13.3682542,18.0715488 L24.7812125,11.2954512 C26.0546292,12.7724238 27.9496458,13.7109375 30.0625,13.7109375 C33.8878375,13.7109375 37,10.6355742 37,6.85546875 C37,3.07536328 33.8878375,0 30.0625,0 C26.2371625,0 23.125,3.07536328 23.125,6.85546875 C23.125,7.72916016 23.2915771,8.56499414 23.5944375,9.33410156 L12.1529583,16.1271094 C10.8804667,14.693707 9.01420208,13.7871094 6.9375,13.7871094 C3.1121625,13.7871094 0,16.8624727 0,20.6425781 C0,24.4226836 3.1121625,27.4980469 6.9375,27.4980469 C9.25940417,27.4980469 11.3183,26.3649141 12.5782271,24.628957 L23.4361854,30.1121895 C23.2339958,30.754623 23.125,31.4371992 23.125,32.1445312 C23.125,35.9246367 26.2371625,39 30.0625,39 C33.8878375,39 37,35.9246367 37,32.1445312 C37,28.3644258 33.8878375,25.2890625 30.0625,25.2890625 Z M30.0625,2.28515625 C32.612725,2.28515625 34.6875,4.33539844 34.6875,6.85546875 C34.6875,9.37553906 32.612725,11.4257812 30.0625,11.4257812 C27.512275,11.4257812 25.4375,9.37553906 25.4375,6.85546875 C25.4375,4.33539844 27.512275,2.28515625 30.0625,2.28515625 Z M6.9375,25.2128906 C4.387275,25.2128906 2.3125,23.1626484 2.3125,20.6425781 C2.3125,18.1225078 4.387275,16.0722656 6.9375,16.0722656 C9.487725,16.0722656 11.5625,18.1225078 11.5625,20.6425781 C11.5625,23.1626484 9.487725,25.2128906 6.9375,25.2128906 Z M30.0625,36.7148438 C27.512275,36.7148438 25.4375,34.6646016 25.4375,32.1445312 C25.4375,29.6244609 27.512275,27.5742188 30.0625,27.5742188 C32.612725,27.5742188 34.6875,29.6244609 34.6875,32.1445312 C34.6875,34.6646016 32.612725,36.7148438 30.0625,36.7148438 Z" id="Shape"></path>
            </g>
        </g>
    </g>
</svg>