<?xml version="1.0" encoding="UTF-8"?>
<svg width="42px" height="39px" viewBox="0 0 42 39" version="1.1" xmlns="http://www.w3.org/2000/svg" xmlns:xlink="http://www.w3.org/1999/xlink">
    <title>diseno-vectorial</title>
    <g id="Diseños" stroke="none" stroke-width="1" fill="none" fill-rule="evenodd">
        <g id="Home" transform="translate(-907.000000, -637.000000)" fill="#FFFFFF" fill-rule="nonzero">
            <g id="diseno-vectorial" transform="translate(907.000000, 637.000000)">
                <path d="M39.508957,19.8373091 C39.1572891,13.6145455 35.644875,8.01319091 30.2258086,4.90909091 L34.8288281,4.90909091 C35.3367656,6.33755455 36.7044727,7.36363636 38.3085938,7.36363636 C40.3440352,7.36363636 42,5.71197273 42,3.68181818 C42,1.65166364 40.3440352,0 38.3085938,0 C36.7044727,0 35.3367656,1.02608182 34.8288281,2.45454545 L24.6914062,2.45454545 L24.6914062,0 L17.3085938,0 L17.3085938,2.45454545 L7.17117188,2.45454545 C6.66323438,1.02608182 5.29552734,0 3.69140625,0 C1.65596484,0 0,1.65166364 0,3.68181818 C0,5.71197273 1.65596484,7.36363636 3.69140625,7.36363636 C5.29552734,7.36363636 6.66323438,6.33755455 7.17117188,4.90827273 L11.7742734,4.90827273 C6.35799609,8.01147273 2.84279297,13.6111091 2.49104297,19.8373091 C1.04327344,20.3353364 0,21.7071 0,23.3181818 C0,25.3483364 1.65596484,27 3.69140625,27 C5.72684766,27 7.3828125,25.3483364 7.3828125,23.3181818 C7.3828125,21.7305 6.36997266,20.3743636 4.95493359,19.8586636 C5.40323437,12.8822727 10.4810508,6.94178182 17.3085938,5.33601818 L17.3085938,7.36363636 L24.6914062,7.36363636 L24.6914062,5.33593636 C31.5189492,6.9417 36.5967656,12.8821909 37.0450664,19.8585818 C35.6300273,20.3743636 34.6171875,21.7305 34.6171875,23.3181818 C34.6171875,25.3483364 36.2731523,27 38.3085938,27 C40.3440352,27 42,25.3483364 42,23.3181818 C42,21.7071 40.9567266,20.3353364 39.508957,19.8373091 Z M3.69140625,24.5454545 C3.01292578,24.5454545 2.4609375,23.9949 2.4609375,23.3181818 C2.4609375,22.6414636 3.01292578,22.0909091 3.69140625,22.0909091 C4.36988672,22.0909091 4.921875,22.6414636 4.921875,23.3181818 C4.921875,23.9949 4.36988672,24.5454545 3.69140625,24.5454545 Z M38.3085938,2.45454545 C38.9870742,2.45454545 39.5390625,3.0051 39.5390625,3.68181818 C39.5390625,4.35853636 38.9870742,4.90909091 38.3085938,4.90909091 C37.6301133,4.90909091 37.078125,4.35853636 37.078125,3.68181818 C37.078125,3.0051 37.6301133,2.45454545 38.3085938,2.45454545 Z M3.69140625,4.90909091 C3.01292578,4.90909091 2.4609375,4.35853636 2.4609375,3.68181818 C2.4609375,3.0051 3.01292578,2.45454545 3.69140625,2.45454545 C4.36988672,2.45454545 4.921875,3.0051 4.921875,3.68181818 C4.921875,4.35853636 4.36988672,4.90909091 3.69140625,4.90909091 Z M22.2304688,4.90909091 L19.7695312,4.90909091 L19.7695312,2.45454545 L22.2304688,2.45454545 L22.2304688,4.90909091 Z M38.3085938,24.5454545 C37.6301133,24.5454545 37.078125,23.9949 37.078125,23.3181818 C37.078125,22.6414636 37.6301133,22.0909091 38.3085938,22.0909091 C38.9870742,22.0909091 39.5390625,22.6414636 39.5390625,23.3181818 C39.5390625,23.9949 38.9870742,24.5454545 38.3085938,24.5454545 Z" id="Shape"></path>
                <path d="M21,9 L12,23.3120899 L16.4394532,31.7837394 L12.1763882,31.7837394 L12.1763882,39 L29.8236118,39 L29.8236118,31.7837394 L25.5605468,31.7837394 L30,23.3120899 L21,9 Z M27.3025799,36.5945798 L14.6974201,36.5945798 L14.6974201,34.1891596 L27.3025799,34.1891596 L27.3025799,36.5945798 Z M19.2579669,31.7837394 L14.8738083,23.4174473 L19.739484,15.6798519 L19.739484,24.5674787 L22.260516,24.5674787 L22.260516,15.6798519 L27.1261917,23.4174473 L22.7420331,31.7837394 L19.2579669,31.7837394 Z" id="Shape"></path>
            </g>
        </g>
    </g>
</svg>