<?xml version="1.0" encoding="UTF-8"?>
<svg width="40px" height="44px" viewBox="0 0 40 44" version="1.1" xmlns="http://www.w3.org/2000/svg" xmlns:xlink="http://www.w3.org/1999/xlink">
    <title>escritura</title>
    <g id="Diseños" stroke="none" stroke-width="1" fill="none" fill-rule="evenodd">
        <g id="Diseñar-Jugada" transform="translate(-971.000000, -749.000000)" fill="#FFFFFF" fill-rule="nonzero">
            <g id="escritura" transform="translate(971.000000, 749.000000)">
                <path d="M28,19 C28,17.8954 27.2356341,17 26.2926829,17 L8.70731707,17 C7.76436585,17 7,17.8954 7,19 C7,20.1046 7.76436585,21 8.70731707,21 L26.2926829,21 C27.2356341,21 28,20.1046 28,19 Z" id="Path"></path>
                <path d="M8.69582887,24 C7.75922258,24 7,24.8954 7,26 C7,27.1046 7.75922258,28 8.69582887,28 L19.3041711,28 C20.2407774,28 21,27.1046 21,26 C21,24.8954 20.2407774,24 19.3041711,24 L8.69582887,24 Z" id="Path"></path>
                <path d="M13.0282023,40.5625 L7.09553597,40.5625 C5.1392967,40.5625 3.54776799,39.0204375 3.54776799,37.125 L3.54776799,6.875 C3.54776799,4.9795625 5.1392967,3.4375 7.09553597,3.4375 L28.904464,3.4375 C30.8607033,3.4375 32.452232,4.9795625 32.452232,6.875 L32.452232,17.4453125 C32.452232,18.3945781 33.2463999,19.1640625 34.226116,19.1640625 C35.2058321,19.1640625 36,18.3945781 36,17.4453125 L36,6.875 C36,3.084125 32.8169426,0 28.904464,0 L7.09553597,0 C3.18305744,0 0,3.084125 0,6.875 L0,37.125 C0,40.915875 3.18305744,44 7.09553597,44 L13.0282023,44 C14.0079184,44 14.8020863,43.2305156 14.8020863,42.28125 C14.8020863,41.3319844 14.0079184,40.5625 13.0282023,40.5625 Z" id="Path"></path>
                <path d="M38.477213,24.5355935 C36.4469315,22.4884127 33.1434933,22.4883252 31.1145136,24.5341933 L21.5851046,34.121657 C21.3827186,34.32529 21.233446,34.5760902 21.1503046,34.8519179 L19.074981,41.7410479 C18.8909938,42.3518593 19.0512883,43.0150885 19.4933783,43.4719719 C19.8245553,43.8142188 20.2744561,44 20.7358995,44 C20.8902925,44 21.0461609,43.9791729 21.1991654,43.9363811 L28.204999,41.9795969 C28.4933034,41.8990888 28.7560927,41.7448108 28.9678516,41.5316394 L38.4772998,31.9610649 C40.5075812,29.9138841 40.5075812,26.5829493 38.477213,24.5355935 Z M26.83846,38.7291702 L23.31389,39.7136441 L24.3453466,36.2895125 L30.7752655,29.8204247 L33.2304533,32.2960485 L26.83846,38.7291702 Z M36.0238477,29.484916 L35.6875503,29.8233125 L33.2327965,27.3481262 L33.5679657,27.0108673 C34.2447261,26.3284737 35.3458722,26.3284737 36.0226327,27.0108673 C36.6993932,27.6932609 36.6993932,28.8035725 36.0238477,29.484916 Z" id="Shape"></path>
                <path d="M26.2926829,10 L8.70731707,10 C7.76436585,10 7,10.8954 7,12 C7,13.1046 7.76436585,14 8.70731707,14 L26.2926829,14 C27.2356341,14 28,13.1046 28,12 C28,10.8954 27.2356341,10 26.2926829,10 Z" id="Path"></path>
            </g>
        </g>
    </g>
</svg>