<?xml version="1.0" encoding="UTF-8"?>
<svg width="42px" height="54px" viewBox="0 0 42 54" version="1.1" xmlns="http://www.w3.org/2000/svg" xmlns:xlink="http://www.w3.org/1999/xlink">
    <title>pdf</title>
    <g id="Diseños" stroke="none" stroke-width="1" fill="none" fill-rule="evenodd">
        <g id="compartir" transform="translate(-607.000000, -253.000000)" fill="#FFFFFF" fill-rule="nonzero">
            <g id="pdf" transform="translate(607.000000, 253.000000)">
                <path d="M41.4866667,11.3465172 L40.7670667,10.6286897 L31.3450667,1.22989655 L30.6254667,0.512068966 C30.2997333,0.187137931 29.848,0 29.386,0 L2.2988,0 C1.19186667,0 0,0.852827586 0,2.7242069 L0,36.3103448 L0,51.7068621 L0,52.137931 C0,52.9172069 0.785866667,53.676931 1.71546667,53.9162069 C1.76213333,53.9283103 1.80693333,53.946 1.85546667,53.9553103 C2.00106667,53.9841724 2.14946667,54 2.2988,54 L39.7012,54 C39.8505333,54 39.9989333,53.9841724 40.1445333,53.9553103 C40.1930667,53.946 40.2378667,53.9283103 40.2845333,53.9162069 C41.2141333,53.676931 42,52.9172069 42,52.137931 L42,51.7068621 L42,36.3103448 L42,13.014 C42,12.2998966 41.9141333,11.772931 41.4866667,11.3465172 Z M38.6726667,11.1724138 L30.8,11.1724138 L30.8,3.31913793 L38.6726667,11.1724138 Z M2.2988,52.137931 C2.23253333,52.137931 2.1728,52.1137241 2.114,52.0923103 C1.9684,52.0234138 1.86666667,51.8781724 1.86666667,51.7068621 L1.86666667,38.1724138 L40.1333333,38.1724138 L40.1333333,51.7068621 C40.1333333,51.8781724 40.0316,52.0224828 39.886,52.0923103 C39.8272,52.1137241 39.7674667,52.137931 39.7012,52.137931 L2.2988,52.137931 Z M1.86666667,36.3103448 L1.86666667,2.7242069 C1.86666667,2.52217241 1.89746667,1.86206897 2.2988,1.86206897 L28.9874667,1.86206897 C28.9566667,1.97937931 28.9333333,2.10041379 28.9333333,2.22610345 L28.9333333,13.0344828 L39.7684,13.0344828 C39.8944,13.0344828 40.0148,13.0112069 40.1324,12.9804828 C40.1324,12.9944483 40.1333333,13.0000345 40.1333333,13.014 L40.1333333,36.3103448 L1.86666667,36.3103448 Z" id="Shape"></path>
                <path d="M14.9558709,41.7324335 C14.6443162,41.4885867 14.2925308,41.3045852 13.9005146,41.1831084 C13.5084984,41.0607384 13.1118041,41 12.7113675,41 L10,41 L10,50 L11.5353189,50 L11.5353189,46.7513894 L12.6739436,46.7513894 C13.1679401,46.7513894 13.6207703,46.6826121 14.0296273,46.5441644 C14.4384843,46.4057166 14.7883986,46.2101032 15.0784344,45.9582175 C15.3684703,45.7063319 15.5939498,45.394601 15.7567441,45.0239182 C15.9186028,44.6532354 16,44.2405717 16,43.7841405 C16,43.3527193 15.9036332,42.9641723 15.7118353,42.6176062 C15.5200374,42.2710401 15.2674255,41.9771735 14.9558709,41.7324335 Z M14.373928,44.7059349 C14.2794324,44.9542477 14.1568689,45.1471814 14.0034305,45.2856292 C13.8499922,45.424077 13.6815843,45.5241167 13.4982068,45.5848551 C13.3148293,45.6455935 13.1286449,45.6768559 12.941525,45.6768559 L11.5343833,45.6768559 L11.5343833,42.1111552 L12.6851707,42.1111552 C13.077187,42.1111552 13.392484,42.1701072 13.6319975,42.2880111 C13.8705754,42.405915 14.0558241,42.5524017 14.1886792,42.7274712 C14.3205988,42.9025407 14.4076095,43.0856491 14.4506471,43.2767963 C14.4927491,43.4679436 14.5142679,43.6367606 14.5142679,43.7832473 C14.5142679,44.1503573 14.4674879,44.4576221 14.373928,44.7059349 Z" id="Shape"></path>
                <path d="M23.7559926,42.3183803 C23.3390289,41.9200079 22.814874,41.599345 22.1825446,41.3599643 C21.5502151,41.1205836 20.8175784,41 19.9846343,41 L17,41 L17,50 L20.7507068,50 C20.8755993,50 21.0683467,49.9857086 21.328949,49.9571258 C21.5885679,49.9285431 21.8757222,49.8642318 22.1894284,49.7615125 C22.5031346,49.6596864 22.8276583,49.5069472 23.1639828,49.303295 C23.5003073,49.0996427 23.8022127,48.8209607 24.0716656,48.4663557 C24.3411186,48.1117507 24.5623848,47.6722906 24.7374309,47.1470822 C24.912477,46.6218738 25,45.9885867 25,45.2481143 C25,44.710401 24.8967425,44.186979 24.6912108,43.6787416 C24.4837124,43.1713974 24.1729564,42.7176459 23.7559926,42.3183803 Z M22.5798402,47.9724097 C22.0960049,48.6074831 21.3073141,48.9245732 20.2137677,48.9245732 L18.6137677,48.9245732 L18.6137677,42.110262 L19.5548863,42.110262 C20.3258758,42.110262 20.9532883,42.2022628 21.4371235,42.3853712 C21.9209588,42.5684796 22.3044868,42.8087535 22.586724,43.1061929 C22.8689613,43.4036324 23.0587585,43.7350139 23.1580824,44.1012306 C23.2564229,44.4674474 23.3055931,44.8381302 23.3055931,45.2123859 C23.3055931,46.4173283 23.0636755,47.3382295 22.5798402,47.9724097 Z" id="Shape"></path>
                <polygon id="Path" points="27 50 28.5880673 50 28.5880673 45.9457126 32.5972707 45.9457126 32.5972707 44.9444224 28.5880673 44.9444224 28.5880673 42.1111552 33 42.1111552 33 41 27 41"></polygon>
                <path d="M30.0729125,21.2479936 C29.1969401,21.2479936 28.121753,21.3615612 26.8721341,21.5868035 C25.1278147,19.7489022 23.3072409,17.0649228 22.0223543,14.430156 C23.2967559,9.10289219 22.6590785,8.34861448 22.3778904,7.99276953 C22.0785919,7.61421108 21.6563332,7 21.1759304,7 C20.9748095,7 20.4257778,7.09085403 20.2074996,7.16278013 C19.6584679,7.34448819 19.3629821,7.76468807 19.1265935,8.31265142 C18.4526952,9.87704422 19.3772798,12.5439885 20.3285534,14.5995609 C19.5154909,17.8106829 18.1514903,21.6539976 16.7179076,24.7733192 C13.1053555,26.4162629 11.1866041,28.0298683 11.0131254,29.5696548 C10.9502155,30.1299213 11.0836607,30.9523395 12.0759211,31.6914749 C12.3475774,31.8930572 12.6659395,32 12.9976461,32 L12.9976461,32 C13.8316786,32 14.6742897,31.3659146 15.6493929,30.0059434 C16.3604651,29.0141202 17.1239623,27.6617202 17.9208208,25.9828134 C20.4734368,24.8745836 23.6313221,23.8732965 26.3354937,23.3120836 C27.8415181,24.7477665 29.1902678,25.4745987 30.3493347,25.4745987 C31.2033839,25.4745987 31.9354262,25.0846835 32.4653942,24.3474409 C33.0172855,23.5799137 33.1431052,22.8928301 32.8371344,22.3032253 C32.4701601,21.5943746 31.5655923,21.2479936 30.0729125,21.2479936 Z M13.0186161,30.4024833 C12.5725279,30.0627271 12.5982637,29.8336993 12.6077955,29.7475772 C12.6668927,29.221381 13.4971124,28.287288 15.5340581,27.1506663 C13.9899065,29.9822835 13.1606399,30.3580027 13.0186161,30.4024833 Z M20.834692,8.7091914 C20.8756787,8.69594185 21.8307651,9.75117353 20.9261973,11.7528013 C19.5669626,10.3720094 20.7412804,8.74042247 20.834692,8.7091914 Z M18.864469,23.8761357 C19.8319467,21.5868035 20.7317486,19.0589794 21.4132723,16.7175954 C22.4836934,18.6274228 23.7695332,20.4804664 25.0563262,21.9644155 C23.0222401,22.43856 20.8566151,23.107662 18.864469,23.8761357 Z M31.161444,23.4228119 C30.8678646,23.8307087 30.2311403,23.8401726 30.0080962,23.8401726 C29.5000513,23.8401726 29.3103685,23.5401651 28.5335268,22.9467747 C29.1740637,22.8653846 29.7783799,22.8445639 30.2597357,22.8445639 C31.1071128,22.8445639 31.2624811,22.9685418 31.3797222,23.0310039 C31.3587523,23.0981981 31.3034678,23.2250151 31.161444,23.4228119 Z" id="Shape"></path>
            </g>
        </g>
    </g>
</svg>