<?xml version="1.0"?>
<svg xmlns="http://www.w3.org/2000/svg" xmlns:xlink="http://www.w3.org/1999/xlink" xmlns:svgjs="http://svgjs.com/svgjs" version="1.1" width="512" height="512" x="0" y="0" viewBox="0 0 509.264 509.264" style="enable-background:new 0 0 512 512" xml:space="preserve" class=""><g><g xmlns="http://www.w3.org/2000/svg"><path d="m494.632 30h-30v-30h-420v30h-30v30h30v30h30v316.718l180 102.545 180-102.545v-316.718h30v-30h30zm-90 359.282-150 85.455-150-85.455v-299.282h300zm30-329.282h-360v-30h360z" fill="#ffffff" data-original="#000000" style="" class=""/><path d="m254.632 420c66.168 0 120-53.831 120-120-6.033-158.978-233.991-158.934-240 .002 0 66.167 53.832 119.998 120 119.998zm-40.017-39.402 19.196-26.422h41.641l19.196 26.422c-25.156 12.541-54.869 12.544-80.033 0zm40.017-110.463 28.41 20.642-10.852 33.399h-35.117l-10.853-33.399zm64.267 92.801-19.181-26.4 12.864-39.594 31.084-10.1c4.101 27.864-4.958 55.871-24.767 76.094zm15.479-104.618-31.075 10.097-33.671-24.463v-32.694c28.155 4.743 51.91 22.603 64.746 47.06zm-94.746-47.061v32.694l-33.672 24.463-31.074-10.097c12.836-24.456 36.59-42.316 64.746-47.06zm-74.035 75.586 31.083 10.1 12.865 39.594-19.181 26.4c-19.787-20.202-28.872-48.199-24.767-76.094z" fill="#ffffff" data-original="#000000" style="" class=""/><path d="m134.632 120h240v30h-240z" fill="#ffffff" data-original="#000000" style="" class=""/></g></g></svg>
