<?xml version="1.0"?>
<svg xmlns="http://www.w3.org/2000/svg" xmlns:xlink="http://www.w3.org/1999/xlink" xmlns:svgjs="http://svgjs.com/svgjs" version="1.1" width="512" height="512" x="0" y="0" viewBox="0 0 509.907 509.907" style="enable-background:new 0 0 512 512" xml:space="preserve"><g><g xmlns="http://www.w3.org/2000/svg"><path d="m478.367 49.271-164.236-49.271c-37.291 17.051-81.065 17.052-118.355 0l-164.238 49.271-31.017 205.636h89.432v255h330c0-10.5 0-244.458 0-255h89.433zm-12.896 115.636h-45.518v-101.84l31.586 9.476zm-168.107-127.378c-6.079 25.761-22.29 49.356-42.411 59.606-20.12-10.25-36.331-33.845-42.41-59.606 27.747 7.045 57.072 7.045 84.821 0zm-207.411 25.539v101.839h-45.517l13.932-92.364zm-54.568 161.839 4.525-30h50.043v30zm84.568 161.712 270-67.5v57.871l-270 40.5zm270 93.288h-270v-32.082l270-40.5zm-270-124.211c0-13.605 0-288.168 0-301.628l61.651-18.495c9.53 55.621 44.999 83.491 73.349 95.105 28.654-11.754 63.803-39.617 73.349-95.105l61.651 18.495v234.128zm300-130.789v-30h50.042l4.525 30z" fill="#ffffff" data-original="#000000" style=""/><path d="m314.953 149.907c-25.233 0-45 26.355-45 60 1.444 79.522 88.562 79.51 90-.001 0-33.644-19.766-59.999-45-59.999zm0 90c-6.116 0-15-11.686-15-30s8.884-30 15-30 15 11.687 15 30-8.883 30-15 30z" fill="#ffffff" data-original="#000000" style=""/></g></g></svg>
