<svg id="Capa_1" enable-background="new 0 0 502.5 502.5" height="512" viewBox="0 0 502.5 502.5" width="512" xmlns="http://www.w3.org/2000/svg"><g><path d="m413.022 15.75h-98.022v15c0 35.152-28.598 63.75-63.75 63.75s-63.75-28.598-63.75-63.75v-15h-98.022l-89.478 55.477v147.773h78.75v267.75h345v-267.75h78.75v-147.773zm59.478 173.25h-78.75v267.75h-285v-267.75h-78.75v-101.076l68.022-42.174h60.676c7.202 44.588 45.962 78.75 92.551 78.75s85.35-34.162 92.551-78.75h60.677l68.023 42.174z"/><path d="m167.329 225.323h14.101v138.927h30v-168.927h-44.101z"/><path d="m295.8 192.545c-29.979 0-54.37 24.391-54.37 54.371v62.963c0 29.98 24.391 54.371 54.37 54.371 29.98 0 54.371-24.391 54.371-54.371v-62.963c0-29.98-24.391-54.371-54.371-54.371zm24.371 117.334c0 13.438-10.933 24.371-24.371 24.371s-24.37-10.933-24.37-24.371v-62.963c0-13.438 10.933-24.371 24.37-24.371 13.438 0 24.371 10.933 24.371 24.371z"/></g></svg>