<svg id="Capa_1" enable-background="new 0 0 472.5 472.5" height="512" viewBox="0 0 472.5 472.5" width="512" xmlns="http://www.w3.org/2000/svg"><g><path d="m280.8 207.545c-13.438 0-24.37 10.933-24.37 24.371v62.963c0 13.438 10.933 24.371 24.37 24.371 13.438 0 24.371-10.933 24.371-24.371v-62.963c0-13.438-10.933-24.371-24.371-24.371z"/><path d="m393.75 15.75h-78.75c0 43.313-35.438 78.75-78.75 78.75s-78.75-35.437-78.75-78.75h-78.75l-78.75 48.825v124.425h78.75v267.75h315v-267.75h78.75v-124.425zm-197.32 333.5h-30v-141h-14.101v-30h44.101zm138.741-54.371c0 29.98-24.391 54.371-54.371 54.371-29.979 0-54.37-24.391-54.37-54.371v-62.963c0-29.98 24.391-54.371 54.37-54.371 29.98 0 54.371 24.391 54.371 54.371z"/></g></svg>