<?xml version="1.0" encoding="UTF-8"?>
<svg width="846px" height="540px" viewBox="0 0 846 540" version="1.1" xmlns="http://www.w3.org/2000/svg" xmlns:xlink="http://www.w3.org/1999/xlink">
    <title>Group 27</title>
    <defs>
        <polygon id="path-1" points="0.00745634368 0.267481799 19.7021924 0.267481799 19.7021924 19.972279 0.00745634368 19.972279"></polygon>
        <polygon id="path-3" points="0.802101044 0.279280019 20.5558387 0.279280019 20.5558387 19.972279 0.802101044 19.972279"></polygon>
        <polygon id="path-5" points="0 539.09396 845.156705 539.09396 845.156705 0.894557193 0 0.894557193"></polygon>
    </defs>
    <g id="Diseños" stroke="none" stroke-width="1" fill="none" fill-rule="evenodd">
        <g id="Home" transform="translate(-133.000000, -41.000000)">
            <g id="Group-27" transform="translate(133.000000, 41.000000)">
                <polygon id="Fill-1" fill="transparent" points="420.099 536 424.901 536 424.901 2 420.099 2"></polygon>
                <g id="Group-26">
                    <path d="M25.2674378,4.9437063 L25.2674378,16.3407868 C31.1498979,15.4618194 35.8346254,10.8074217 36.7609506,4.9437063 L25.2674378,4.9437063 Z M23.2436827,20.5350541 L21.2199276,20.5350541 L21.2199276,0.896916837 L40.9854656,0.896916837 L40.9736653,2.93210979 C40.9087635,12.6361458 32.955347,20.5350541 23.2436827,20.5350541 L23.2436827,20.5350541 Z" id="Fill-2" fill="transparent"></path>
                    <path d="M808.447676,4.9437063 C809.3445,10.8605136 813.952525,15.438223 819.888087,16.3289886 L819.888087,4.9437063 L808.447676,4.9437063 Z M823.935597,20.5468523 L821.905942,20.5350541 C812.229679,20.476063 804.305763,12.5771547 804.240861,2.9380089 L804.223161,0.896916837 L823.935597,0.896916837 L823.935597,20.5468523 Z" id="Fill-4" fill="transparent"></path>
                    <g id="Group-8" transform="translate(804.233405, 519.121681)">
                        <mask id="mask-2" fill="white">
                            <use xlink:href="#path-1"></use>
                        </mask>
                        <g id="Clip-7"></g>
                        <path d="M4.20837069,15.9237198 L15.6546823,15.9237198 L15.6546823,4.49124457 C9.76632198,5.40560662 5.08749462,10.0659035 4.20837069,15.9237198 L4.20837069,15.9237198 Z M19.7021924,19.9764083 L0.00745634368,19.9764083 L0.00745634368,17.9530136 C0.00745634368,8.26667497 7.93137203,0.332372009 17.6725372,0.279280019 L19.7021924,0.267481799 L19.7021924,19.9764083 Z" id="Fill-6" fill="transparent" mask="url(#mask-2)"></path>
                    </g>
                    <g id="Group-11" transform="translate(20.417827, 519.121681)">
                        <mask id="mask-4" fill="white">
                            <use xlink:href="#path-3"></use>
                        </mask>
                        <g id="Clip-10"></g>
                        <path d="M4.84961122,15.9237198 L16.3549244,15.9237198 C15.4699003,10.0246098 10.7733725,5.35251463 4.84961122,4.47354724 L4.84961122,15.9237198 Z M20.5558387,19.9764083 L0.802101044,19.9764083 L0.802101044,0.279280019 L2.82585613,0.279280019 C12.6024222,0.279280019 20.5558387,8.20178476 20.5558387,17.9530136 L20.5558387,19.9764083 Z" id="Fill-9" fill="transparent" mask="url(#mask-4)"></path>
                    </g>
                    <mask id="mask-6" fill="white">
                        <use xlink:href="#path-5"></use>
                    </mask>
                    <g id="Clip-13"></g>
                    <path d="M25.2703878,535.04717 L819.892217,535.04717 L819.892217,4.94724577 L25.2703878,4.94724577 L25.2703878,535.04717 Z M21.2169775,539.09396 L823.933827,539.09396 L823.933827,0.894557193 L21.2169775,0.894557193 L21.2169775,539.09396 Z" id="Fill-12" fill="transparent" mask="url(#mask-6)"></path>
                    <path d="M422.384827,185.690077 C375.885661,185.690077 338.065632,223.509272 338.065632,269.994258 C338.065632,316.473346 375.885661,354.29844 422.384827,354.29844 C468.878093,354.29844 506.704022,316.473346 506.704022,269.994258 C506.704022,223.509272 468.878093,185.690077 422.384827,185.690077 M422.384827,358.345229 C373.655401,358.345229 334.018122,318.709109 334.018122,269.994258 C334.018122,221.273509 373.655401,181.643288 422.384827,181.643288 C471.108353,181.643288 510.751532,221.273509 510.751532,269.994258 C510.751532,318.709109 471.108353,358.345229 422.384827,358.345229" id="Fill-14" fill="transparent" mask="url(#mask-6)"></path>
                    <path d="M428.118013,269.994258 C428.118013,273.162081 425.545543,275.728193 422.383057,275.728193 C419.214671,275.728193 416.654001,273.162081 416.654001,269.994258 C416.654001,266.826436 419.214671,264.260324 422.383057,264.260324 C425.545543,264.260324 428.118013,266.826436 428.118013,269.994258" id="Fill-15" fill="transparent" mask="url(#mask-6)"></path>
                    <path d="M25.2939885,459.060734 L176.845514,459.060734 L176.845514,80.9336818 L25.2939885,80.9336818 L25.2939885,459.060734 Z M21.2464783,463.107524 L180.893024,463.107524 L180.893024,76.8868923 L21.2464783,76.8868923 L21.2464783,463.107524 Z" id="Fill-16" fill="transparent" mask="url(#mask-6)"></path>
                    <path d="M25.2939885,354.752671 L71.161837,354.752671 L71.161837,185.241745 L25.2939885,185.241745 L25.2939885,354.752671 Z M21.2464783,358.799461 L75.2093472,358.799461 L75.2093472,181.194956 L21.2464783,181.194956 L21.2464783,358.799461 Z" id="Fill-17" fill="transparent" mask="url(#mask-6)"></path>
                    <path d="M4.04751017,303.937737 L20.6859631,303.937737 L20.6859631,236.056679 L4.04751017,236.056679 L4.04751017,303.937737 Z M0,307.978628 L24.7334732,307.978628 L24.7334732,232.00399 L0,232.00399 L0,307.978628 Z" id="Fill-18" fill="transparent" mask="url(#mask-6)"></path>
                    <path d="M180.893024,207.670751 L180.893024,332.313047 C201.236778,318.084393 213.273105,295.054268 213.273105,269.994848 C213.273105,244.935429 201.236778,221.911203 180.893024,207.670751 L180.893024,207.670751 Z M176.845514,339.757723 L176.845514,200.231973 L179.948998,202.184579 C203.349035,216.944152 217.320615,242.286729 217.320615,269.994848 C217.320615,297.702968 203.349035,323.051444 179.948998,337.799219 L176.845514,339.757723 Z" id="Fill-19" fill="transparent" mask="url(#mask-6)"></path>
                    <path d="M131.315154,269.994258 C131.315154,273.162081 128.748584,275.728193 125.580198,275.728193 C122.411812,275.728193 119.845242,273.162081 119.845242,269.994258 C119.845242,266.826436 122.411812,264.260324 125.580198,264.260324 C128.748584,264.260324 131.315154,266.826436 131.315154,269.994258" id="Fill-20" fill="transparent" mask="url(#mask-6)"></path>
                    <path d="M668.311191,459.060734 L819.862716,459.060734 L819.862716,80.9336818 L668.311191,80.9336818 L668.311191,459.060734 Z M664.263681,463.107524 L823.910226,463.107524 L823.910226,76.8868923 L664.263681,76.8868923 L664.263681,463.107524 Z" id="Fill-21" fill="transparent" mask="url(#mask-6)"></path>
                    <path d="M773.988968,354.752671 L819.856816,354.752671 L819.856816,185.241745 L773.988968,185.241745 L773.988968,354.752671 Z M769.947358,358.799461 L823.910226,358.799461 L823.910226,181.194956 L769.947358,181.194956 L769.947358,358.799461 Z" id="Fill-22" fill="transparent" mask="url(#mask-6)"></path>
                    <path d="M824.476642,303.937737 L841.109195,303.937737 L841.109195,236.056679 L824.476642,236.056679 L824.476642,303.937737 Z M820.429132,307.978628 L845.162605,307.978628 L845.162605,232.00399 L820.429132,232.00399 L820.429132,307.978628 Z" id="Fill-23" fill="transparent" mask="url(#mask-6)"></path>
                    <path d="M664.268401,207.670751 C643.930547,221.911203 631.89422,244.935429 631.89422,269.994848 C631.89422,295.054268 643.930547,318.084393 664.268401,332.313047 L664.268401,207.670751 Z M668.315911,339.757723 L665.212427,337.799219 C641.81239,323.051444 627.84081,297.702968 627.84081,269.994848 C627.84081,242.286729 641.81239,216.938253 665.212427,202.184579 L668.315911,200.231973 L668.315911,339.757723 Z" id="Fill-24" fill="transparent" mask="url(#mask-6)"></path>
                    <path d="M713.84391,269.994258 C713.84391,273.162081 716.416381,275.728193 719.584767,275.728193 C722.747253,275.728193 725.313823,273.162081 725.313823,269.994258 C725.313823,266.826436 722.747253,264.260324 719.584767,264.260324 C716.416381,264.260324 713.84391,266.826436 713.84391,269.994258" id="Fill-25" fill="transparent" mask="url(#mask-6)"></path>
                </g>
            </g>
        </g>
    </g>
</svg>