<?xml version="1.0" encoding="UTF-8"?>
<svg width="804px" height="576px" viewBox="0 0 804 576" version="1.1" xmlns="http://www.w3.org/2000/svg" xmlns:xlink="http://www.w3.org/1999/xlink">
    <title>Group 367</title>
    <g id="Diseños" stroke="none" stroke-width="1" fill="none" fill-rule="evenodd">
        <g id="Terreno-de-juego" transform="translate(-143.000000, -31.000000)">
            <g id="Group-367" transform="translate(545.000000, 319.000000) rotate(90.000000) translate(-545.000000, -319.000000) translate(257.500000, -82.500000)">
                <path d="M33.2201213,777.810584 L49.0306984,793.721735 C54.9742975,799.704813 62.8789827,803 71.2869127,803 L526.130943,803 C534.54008,803 542.444765,799.704813 548.389571,793.721735 L565.779879,776.219469 C571.725891,770.235176 575,762.280815 575,753.818756 L575,421 L572.856684,421 L572.856684,753.818756 C572.856684,761.703884 569.805837,769.116537 564.26411,774.693942 L546.873803,792.196207 C541.334489,797.773612 533.968047,800.842885 526.130943,800.842885 L71.2869127,800.842885 C63.4522232,800.842885 56.0845739,797.773612 50.5440534,792.196207 L34.7358899,776.285057 C29.1941626,770.707652 26.1433162,763.295 26.1433162,755.409871 L26.1433162,421 L24,421 L24,755.409871 C24,763.871931 27.2741085,771.826291 33.2201213,777.810584" id="Fill-357" fill="#353535"></path>
                <path d="M50.9115189,760.292574 L65.5669225,775.037683 C70.9907825,780.494299 78.2027021,783.5 85.8741696,783.5 L510.660051,783.5 C518.331519,783.5 525.543438,780.494299 530.967298,775.037683 L547.088481,758.817943 C552.512341,753.362529 555.5,746.105855 555.5,738.388059 L555.5,422.5 L554.441249,422.5 L554.441249,738.388059 C554.441249,745.821256 551.564598,752.808942 546.340074,758.065017 L530.217698,774.283556 C524.994368,779.53843 518.048628,782.433654 510.660051,782.433654 L85.8741696,782.433654 C78.4867863,782.433654 71.5410465,779.53843 66.3165228,774.283556 L51.6611193,759.539648 C46.4365956,754.283573 43.5599445,747.295887 43.5599445,739.863891 L43.5599445,422.5 L42.5,422.5 L42.5,739.863891 C42.5,747.581687 45.4876588,754.835959 50.9115189,760.292574" id="Fill-358" fill="#05FF4D"></path>
                <path d="M8.89551841,241.269637 C3.52045172,249.805744 0.5,261.382232 0.5,273.453404 L0.5,526.543677 C0.5,538.614848 3.52045172,550.191337 8.89551841,558.727444 L24.5,583.5 L23.866886,217.5 L8.89551841,241.269637 Z" id="Fill-359" fill="#353535"></path>
                <path d="M32.2201213,24.9504115 L48.0306984,9.19099054 C53.9742975,3.26376405 61.8789827,0 70.2869127,0 L525.130943,0 C533.54008,0 541.444765,3.26376405 547.389571,9.19099054 L564.779879,26.5263536 C570.725891,32.4523771 574,40.3320876 574,48.7122499 L574,422 L571.856684,422 L571.856684,48.7122499 C571.856684,40.9023139 568.805837,33.5603486 563.26411,28.0361302 L545.873803,10.7007671 C540.334489,5.17775174 532.968047,2.1365444 525.130943,2.1365444 L70.2869127,2.1365444 C62.4522232,2.1365444 55.0845739,5.17775174 49.5440534,10.7007671 L33.7358899,26.4601881 C28.1941626,31.9844065 25.1433162,39.3275749 25.1433162,47.1363078 L25.1433162,422 L23,422 L23,47.1363078 C23,38.7561455 26.2741085,30.876435 32.2201213,24.9504115" id="Fill-361" fill="#353535"></path>
                <path d="M50.9115189,39.7324333 L65.5669225,24.9714352 C70.9907825,19.5089403 78.2027021,16.5 85.8741696,16.5 L510.660051,16.5 C518.331519,16.5 525.543438,19.5089403 530.967298,24.9714352 L547.088481,41.2086533 C552.512341,46.6711482 555.5,53.9344392 555.5,61.6605516 L555.5,421.5 L554.441249,421.5 L554.441249,61.6605516 C554.441249,54.2193449 551.564598,47.2241296 546.340074,41.962391 L530.217698,25.7263751 C524.994368,20.4658386 518.048628,17.5686967 510.660051,17.5686967 L85.8741696,17.5686967 C78.4867863,17.5686967 71.5410465,20.4658386 66.3165228,25.7263751 L51.6611193,40.486171 C46.4365956,45.7479096 43.5599445,52.7431248 43.5599445,60.1831295 L43.5599445,421.5 L42.5,421.5 L42.5,60.1831295 C42.5,52.457017 45.4876588,45.1949282 50.9115189,39.7324333" id="Fill-362" fill="#05FF4D"></path>
                <path d="M42.5,60.741017 C42.5,53.1972701 45.4770922,45.9607184 50.7734219,40.6251619 L50.7734219,40.6251619 L65.4615266,25.8328165 C70.7578563,20.49726 77.9428274,17.5 85.434,17.5 L85.434,17.5 L511.098386,17.5 C518.590754,17.5 525.773333,20.49726 531.070859,25.8328165 L531.070859,25.8328165 L547.226578,42.1045169 C552.5253,47.4400734 555.5,54.6754205 555.5,62.220372 L555.5,62.220372 L555.5,739.773048 C555.5,747.319109 552.524104,754.556726 547.226578,759.891863 L547.226578,759.891863 L531.070859,776.167162 C525.773333,781.502299 518.589558,784.5 511.09719,784.5 L511.09719,784.5 L85.434,784.5 C77.9428274,784.5 70.7578563,781.502299 65.4603305,776.167162 L65.4603305,776.167162 L50.7734219,761.371435 C45.4758961,756.036299 42.5,748.798682 42.5,741.25262 L42.5,741.25262 Z" id="Combined-Shape" fill="#353535"></path>
            </g>
        </g>
    </g>
</svg>