<?xml version="1.0" encoding="UTF-8"?>
<svg width="144px" height="106px" viewBox="0 0 144 106" version="1.1" xmlns="http://www.w3.org/2000/svg" xmlns:xlink="http://www.w3.org/1999/xlink">
    <title>Group 367</title>
    <g id="Diseños" stroke="none" stroke-width="1" fill="none" fill-rule="evenodd">
        <g id="Terreno-de-juego" transform="translate(-215.000000, -719.000000)" fill="#7BFF00">
            <g id="Group-367" transform="translate(287.000000, 772.000000) rotate(90.000000) translate(-287.000000, -772.000000) translate(234.000000, 700.000000)">
                <path d="M5.15660982,139.01602 L7.99734871,141.848372 C9.06525491,142.913422 10.4855159,143.5 11.9961966,143.5 L93.7195343,143.5 C95.2304318,143.5 96.6506929,142.913422 97.7188159,141.848372 L100.84339,138.732785 C101.91173,137.667518 102.5,136.251559 102.5,134.745224 L102.5,75.5 L102.114903,75.5 L102.114903,134.745224 C102.114903,136.148859 101.566748,137.468389 100.571047,138.461225 L97.4464727,141.576812 C96.4512058,142.569648 95.1276527,143.116011 93.7195343,143.116011 L11.9961966,143.116011 C10.588512,143.116011 9.26474196,142.569648 8.26925823,141.576812 L5.428953,138.74446 C4.43325244,137.751624 3.88509673,136.432094 3.88509673,135.028459 L3.88509673,75.5 L3.5,75.5 L3.5,135.028459 C3.5,136.534794 4.08826995,137.950753 5.15660982,139.01602" id="Fill-357"></path>
                <path d="M9.50849851,134.885664 L12.136758,137.499756 C13.1094581,138.467133 14.4028238,139 15.7786035,139 L91.9585277,139 C93.3343075,139 94.6276732,138.467133 95.6003732,137.499756 L98.4915015,134.624234 C99.4642015,133.657069 100,132.370567 100,131.002315 L100,75 L99.8101266,75 L99.8101266,131.002315 C99.8101266,132.320112 99.2942359,133.558926 98.3572843,134.490751 L95.465942,137.36606 C94.5292044,138.297672 93.2835747,138.810953 91.9585277,138.810953 L15.7786035,138.810953 C14.4537706,138.810953 13.2081409,138.297672 12.2711893,137.36606 L9.64292977,134.752181 C8.70597816,133.820356 8.19008751,132.581542 8.19008751,131.263959 L8.19008751,75 L8,75 L8,131.263959 C8,132.63221 8.53579846,133.918286 9.50849851,134.885664" id="Fill-358"></path>
                <path d="M1.5494398,95.7081083 C0.877556465,96.50108 0.5,97.5764915 0.5,98.6978572 L0.5,122.208975 C0.5,123.330341 0.877556465,124.405753 1.5494398,125.198724 L3.5,127.5 L3.42086075,93.5 L1.5494398,95.7081083 Z" id="Fill-359"></path>
                <path d="M103.927156,101.714122 C104.614023,100.893222 105,99.7799342 105,98.619074 L105,75 L102,75 L102.013999,104 L103.927156,101.714122 Z" id="Fill-360"></path>
                <path d="M5.65660982,4.43431484 L8.49734871,1.63346988 C9.56525491,0.580052853 10.9855159,0 12.4961966,0 L94.2195343,0 C95.7304318,0 97.1506929,0.580052853 98.2188159,1.63346988 L101.34339,4.71439934 C102.41173,5.76760256 103,7.16802504 103,8.65739038 L103,75 L102.614903,75 L102.614903,8.65739038 C102.614903,7.26936859 102.066748,5.96451693 101.071047,4.98272456 L97.9464727,1.90179511 C96.9512058,0.920216542 95.6276527,0.379717606 94.2195343,0.379717606 L12.4961966,0.379717606 C11.088512,0.379717606 9.76474196,0.920216542 8.76925823,1.90179511 L5.928953,4.70264006 C4.93325244,5.68443243 4.38509673,6.9894979 4.38509673,8.37730589 L4.38509673,75 L4,75 L4,8.37730589 C4,6.88794055 4.58826995,5.48751807 5.65660982,4.43431484" id="Fill-361"></path>
                <path d="M9.50849851,7.13021036 L12.136758,4.50603293 C13.1094581,3.53492272 14.4028238,3 15.7786035,3 L91.9585277,3 C93.3343075,3 94.6276732,3.53492272 95.6003732,4.50603293 L98.4915015,7.39264947 C99.4642015,8.36375968 100,9.65501141 100,11.0285425 L100,75 L99.8101266,75 L99.8101266,11.0285425 C99.8101266,9.70566131 99.2942359,8.46206749 98.3572843,7.52664729 L95.465942,4.64024446 C94.5292044,3.70503798 93.2835747,3.18999053 91.9585277,3.18999053 L15.7786035,3.18999053 C14.4537706,3.18999053 13.2081409,3.70503798 12.2711893,4.64024446 L9.64292977,7.26420818 C8.70597816,8.19962838 8.19008751,9.44322219 8.19008751,10.7658897 L8.19008751,75 L8,75 L8,10.7658897 C8,9.39235859 8.53579846,8.10132057 9.50849851,7.13021036" id="Fill-362"></path>
                <path d="M1.5494398,47.2918917 C0.877556465,46.49892 0.5,45.4235085 0.5,44.3021428 L0.5,20.7910246 C0.5,19.6696589 0.877556465,18.5942474 1.5494398,17.8012757 L3.5,15.5 L3.42086075,49.5 L1.5494398,47.2918917 Z" id="Fill-365"></path>
                <path d="M103.927156,62.0985603 C104.614023,62.8521197 105,63.8740811 105,64.9397126 L105,75 L102,75 L102.013999,60 L103.927156,62.0985603 Z" id="Fill-366"></path>
            </g>
        </g>
    </g>
</svg>